<?xml version="1.0" encoding="UTF-8"?><svg xmlns="http://www.w3.org/2000/svg" viewBox="0 0 32.14 35.18"><g id="a"/><g id="b"><g><path d="M31.27,19.05c-1.23-1.23-3-1.05-4.24,0-2.65,2.24-5.3,4.48-7.96,6.72V2.9c0-3.86-6-3.87-6,0V25.78c-2.65-2.24-5.3-4.48-7.96-6.72-1.24-1.05-3.03-1.21-4.24,0-1.07,1.07-1.24,3.19,0,4.24,4.36,3.68,8.72,7.37,13.08,11.05,.01,0,.02,.01,.03,.02,.12,.11,.25,.2,.39,.28,1.05,.68,2.24,.71,3.3,.07h0l.02-.02c.17-.1,.32-.21,.47-.34,0,0,.02-.01,.03-.02,4.36-3.68,8.72-7.37,13.08-11.05,1.24-1.05,1.08-3.16,0-4.24Z"/><path d="M31.27,19.05c-1.23-1.23-3-1.05-4.24,0-2.65,2.24-5.3,4.48-7.96,6.72V2.9c0-3.86-6-3.87-6,0V25.78c-2.65-2.24-5.3-4.48-7.96-6.72-1.24-1.05-3.03-1.21-4.24,0-1.07,1.07-1.24,3.19,0,4.24,4.36,3.68,8.72,7.37,13.08,11.05,.01,0,.02,.01,.03,.02,.12,.11,.25,.2,.39,.28,1.05,.68,2.24,.71,3.3,.07h0l.02-.02c.17-.1,.32-.21,.47-.34,0,0,.02-.01,.03-.02,4.36-3.68,8.72-7.37,13.08-11.05,1.24-1.05,1.08-3.16,0-4.24Z"/></g></g></svg>