<svg width="1817" height="1023" viewBox="0 0 1817 1023" fill="none" xmlns="http://www.w3.org/2000/svg">
<path d="M4.56013 165.695C7.07863 165.695 9.12027 163.618 9.12027 161.056C9.12027 158.494 7.07863 156.417 4.56013 156.417C2.04164 156.417 0 158.494 0 161.056C0 163.618 2.04164 165.695 4.56013 165.695Z" fill="black"/>
<path d="M4.56013 240.752C7.07863 240.752 9.12027 238.675 9.12027 236.113C9.12027 233.551 7.07863 231.474 4.56013 231.474C2.04164 231.474 0 233.551 0 236.113C0 238.675 2.04164 240.752 4.56013 240.752Z" fill="black"/>
<path d="M71.0694 165.695C73.5879 165.695 75.6296 163.618 75.6296 161.056C75.6296 158.494 73.5879 156.417 71.0694 156.417C68.5509 156.417 66.5093 158.494 66.5093 161.056C66.5093 163.618 68.5509 165.695 71.0694 165.695Z" fill="black"/>
<path d="M71.0694 240.752C73.5879 240.752 75.6296 238.675 75.6296 236.113C75.6296 233.551 73.5879 231.474 71.0694 231.474C68.5509 231.474 66.5093 233.551 66.5093 236.113C66.5093 238.675 68.5509 240.752 71.0694 240.752Z" fill="black"/>
<path d="M138.482 165.695C141 165.695 143.042 163.618 143.042 161.056C143.042 158.494 141 156.417 138.482 156.417C135.963 156.417 133.922 158.494 133.922 161.056C133.922 163.618 135.963 165.695 138.482 165.695Z" fill="black"/>
<path d="M138.482 240.752C141 240.752 143.042 238.675 143.042 236.113C143.042 233.551 141 231.474 138.482 231.474C135.963 231.474 133.922 233.551 133.922 236.113C133.922 238.675 135.963 240.752 138.482 240.752Z" fill="black"/>
<path d="M204.991 165.695C207.51 165.695 209.551 163.618 209.551 161.056C209.551 158.494 207.51 156.417 204.991 156.417C202.473 156.417 200.431 158.494 200.431 161.056C200.431 163.618 202.473 165.695 204.991 165.695Z" fill="black"/>
<path d="M204.991 240.752C207.51 240.752 209.551 238.675 209.551 236.113C209.551 233.551 207.51 231.474 204.991 231.474C202.473 231.474 200.431 233.551 200.431 236.113C200.431 238.675 202.473 240.752 204.991 240.752Z" fill="black"/>
<path d="M272.404 165.695C274.922 165.695 276.964 163.618 276.964 161.056C276.964 158.494 274.922 156.417 272.404 156.417C269.885 156.417 267.844 158.494 267.844 161.056C267.844 163.618 269.885 165.695 272.404 165.695Z" fill="black"/>
<path d="M272.404 240.752C274.922 240.752 276.964 238.675 276.964 236.113C276.964 233.551 274.922 231.474 272.404 231.474C269.885 231.474 267.844 233.551 267.844 236.113C267.844 238.675 269.885 240.752 272.404 240.752Z" fill="black"/>
<path d="M338.913 165.695C341.431 165.695 343.473 163.618 343.473 161.056C343.473 158.494 341.431 156.417 338.913 156.417C336.394 156.417 334.353 158.494 334.353 161.056C334.353 163.618 336.394 165.695 338.913 165.695Z" fill="black"/>
<path d="M338.913 240.752C341.431 240.752 343.473 238.675 343.473 236.113C343.473 233.551 341.431 231.474 338.913 231.474C336.394 231.474 334.353 233.551 334.353 236.113C334.353 238.675 336.394 240.752 338.913 240.752Z" fill="black"/>
<path d="M406.326 165.695C408.844 165.695 410.886 163.618 410.886 161.056C410.886 158.494 408.844 156.417 406.326 156.417C403.807 156.417 401.765 158.494 401.765 161.056C401.765 163.618 403.807 165.695 406.326 165.695Z" fill="black"/>
<path d="M406.326 240.752C408.844 240.752 410.886 238.675 410.886 236.113C410.886 233.551 408.844 231.474 406.326 231.474C403.807 231.474 401.765 233.551 401.765 236.113C401.765 238.675 403.807 240.752 406.326 240.752Z" fill="black"/>
<path d="M472.835 165.695C475.353 165.695 477.395 163.618 477.395 161.056C477.395 158.494 475.353 156.417 472.835 156.417C470.316 156.417 468.275 158.494 468.275 161.056C468.275 163.618 470.316 165.695 472.835 165.695Z" fill="black"/>
<path d="M472.835 240.752C475.353 240.752 477.395 238.675 477.395 236.113C477.395 233.551 475.353 231.474 472.835 231.474C470.316 231.474 468.275 233.551 468.275 236.113C468.275 238.675 470.316 240.752 472.835 240.752Z" fill="black"/>
<path d="M540.247 165.695C542.766 165.695 544.807 163.618 544.807 161.056C544.807 158.494 542.766 156.417 540.247 156.417C537.729 156.417 535.687 158.494 535.687 161.056C535.687 163.618 537.729 165.695 540.247 165.695Z" fill="black"/>
<path d="M540.247 240.752C542.766 240.752 544.807 238.675 544.807 236.113C544.807 233.551 542.766 231.474 540.247 231.474C537.729 231.474 535.687 233.551 535.687 236.113C535.687 238.675 537.729 240.752 540.247 240.752Z" fill="black"/>
<path d="M606.757 165.695C609.275 165.695 611.317 163.618 611.317 161.056C611.317 158.494 609.275 156.417 606.757 156.417C604.238 156.417 602.196 158.494 602.196 161.056C602.196 163.618 604.238 165.695 606.757 165.695Z" fill="black"/>
<path d="M606.757 240.752C609.275 240.752 611.317 238.675 611.317 236.113C611.317 233.551 609.275 231.474 606.757 231.474C604.238 231.474 602.196 233.551 602.196 236.113C602.196 238.675 604.238 240.752 606.757 240.752Z" fill="black"/>
<path d="M674.169 165.695C676.688 165.695 678.729 163.618 678.729 161.056C678.729 158.494 676.688 156.417 674.169 156.417C671.651 156.417 669.609 158.494 669.609 161.056C669.609 163.618 671.651 165.695 674.169 165.695Z" fill="black"/>
<path d="M674.169 240.752C676.688 240.752 678.729 238.675 678.729 236.113C678.729 233.551 676.688 231.474 674.169 231.474C671.651 231.474 669.609 233.551 669.609 236.113C669.609 238.675 671.651 240.752 674.169 240.752Z" fill="black"/>
<path d="M740.678 165.695C743.197 165.695 745.238 163.618 745.238 161.056C745.238 158.494 743.197 156.417 740.678 156.417C738.16 156.417 736.118 158.494 736.118 161.056C736.118 163.618 738.16 165.695 740.678 165.695Z" fill="black"/>
<path d="M740.678 240.752C743.197 240.752 745.238 238.675 745.238 236.113C745.238 233.551 743.197 231.474 740.678 231.474C738.16 231.474 736.118 233.551 736.118 236.113C736.118 238.675 738.16 240.752 740.678 240.752Z" fill="black"/>
<path d="M808.091 165.695C810.609 165.695 812.651 163.618 812.651 161.056C812.651 158.494 810.609 156.417 808.091 156.417C805.572 156.417 803.531 158.494 803.531 161.056C803.531 163.618 805.572 165.695 808.091 165.695Z" fill="black"/>
<path d="M808.091 240.752C810.609 240.752 812.651 238.675 812.651 236.113C812.651 233.551 810.609 231.474 808.091 231.474C805.572 231.474 803.531 233.551 803.531 236.113C803.531 238.675 805.572 240.752 808.091 240.752Z" fill="black"/>
<path d="M874.579 165.695C877.097 165.695 879.139 163.618 879.139 161.056C879.139 158.494 877.097 156.417 874.579 156.417C872.06 156.417 870.018 158.494 870.018 161.056C870.018 163.618 872.06 165.695 874.579 165.695Z" fill="black"/>
<path d="M874.579 240.752C877.097 240.752 879.139 238.675 879.139 236.113C879.139 233.551 877.097 231.474 874.579 231.474C872.06 231.474 870.018 233.551 870.018 236.113C870.018 238.675 872.06 240.752 874.579 240.752Z" fill="black"/>
<path d="M942.013 165.695C944.531 165.695 946.573 163.618 946.573 161.056C946.573 158.494 944.531 156.417 942.013 156.417C939.494 156.417 937.452 158.494 937.452 161.056C937.452 163.618 939.494 165.695 942.013 165.695Z" fill="black"/>
<path d="M942.013 240.752C944.531 240.752 946.573 238.675 946.573 236.113C946.573 233.551 944.531 231.474 942.013 231.474C939.494 231.474 937.452 233.551 937.452 236.113C937.452 238.675 939.494 240.752 942.013 240.752Z" fill="black"/>
<path d="M1008.5 165.695C1011.02 165.695 1013.06 163.618 1013.06 161.056C1013.06 158.494 1011.02 156.417 1008.5 156.417C1005.98 156.417 1003.94 158.494 1003.94 161.056C1003.94 163.618 1005.98 165.695 1008.5 165.695Z" fill="black"/>
<path d="M1008.5 240.752C1011.02 240.752 1013.06 238.675 1013.06 236.113C1013.06 233.551 1011.02 231.474 1008.5 231.474C1005.98 231.474 1003.94 233.551 1003.94 236.113C1003.94 238.675 1005.98 240.752 1008.5 240.752Z" fill="black"/>
<path d="M1075.91 165.695C1078.43 165.695 1080.47 163.618 1080.47 161.056C1080.47 158.494 1078.43 156.417 1075.91 156.417C1073.39 156.417 1071.35 158.494 1071.35 161.056C1071.35 163.618 1073.39 165.695 1075.91 165.695Z" fill="black"/>
<path d="M1075.91 240.752C1078.43 240.752 1080.47 238.675 1080.47 236.113C1080.47 233.551 1078.43 231.474 1075.91 231.474C1073.39 231.474 1071.35 233.551 1071.35 236.113C1071.35 238.675 1073.39 240.752 1075.91 240.752Z" fill="black"/>
<path d="M1142.42 165.695C1144.94 165.695 1146.98 163.618 1146.98 161.056C1146.98 158.494 1144.94 156.417 1142.42 156.417C1139.9 156.417 1137.86 158.494 1137.86 161.056C1137.86 163.618 1139.9 165.695 1142.42 165.695Z" fill="black"/>
<path d="M1142.42 240.752C1144.94 240.752 1146.98 238.675 1146.98 236.113C1146.98 233.551 1144.94 231.474 1142.42 231.474C1139.9 231.474 1137.86 233.551 1137.86 236.113C1137.86 238.675 1139.9 240.752 1142.42 240.752Z" fill="black"/>
<path d="M1209.83 165.695C1212.35 165.695 1214.39 163.618 1214.39 161.056C1214.39 158.494 1212.35 156.417 1209.83 156.417C1207.32 156.417 1205.27 158.494 1205.27 161.056C1205.27 163.618 1207.32 165.695 1209.83 165.695Z" fill="black"/>
<path d="M1209.83 240.752C1212.35 240.752 1214.39 238.675 1214.39 236.113C1214.39 233.551 1212.35 231.474 1209.83 231.474C1207.32 231.474 1205.27 233.551 1205.27 236.113C1205.27 238.675 1207.32 240.752 1209.83 240.752Z" fill="black"/>
<path d="M1276.34 165.695C1278.86 165.695 1280.9 163.618 1280.9 161.056C1280.9 158.494 1278.86 156.417 1276.34 156.417C1273.83 156.417 1271.78 158.494 1271.78 161.056C1271.78 163.618 1273.83 165.695 1276.34 165.695Z" fill="black"/>
<path d="M1276.34 240.752C1278.86 240.752 1280.9 238.675 1280.9 236.113C1280.9 233.551 1278.86 231.474 1276.34 231.474C1273.83 231.474 1271.78 233.551 1271.78 236.113C1271.78 238.675 1273.83 240.752 1276.34 240.752Z" fill="black"/>
<path d="M1343.76 165.695C1346.27 165.695 1348.32 163.618 1348.32 161.056C1348.32 158.494 1346.27 156.417 1343.76 156.417C1341.24 156.417 1339.2 158.494 1339.2 161.056C1339.2 163.618 1341.24 165.695 1343.76 165.695Z" fill="black"/>
<path d="M1343.76 240.752C1346.27 240.752 1348.32 238.675 1348.32 236.113C1348.32 233.551 1346.27 231.474 1343.76 231.474C1341.24 231.474 1339.2 233.551 1339.2 236.113C1339.2 238.675 1341.24 240.752 1343.76 240.752Z" fill="black"/>
<path d="M1410.27 165.695C1412.78 165.695 1414.83 163.618 1414.83 161.056C1414.83 158.494 1412.78 156.417 1410.27 156.417C1407.75 156.417 1405.71 158.494 1405.71 161.056C1405.71 163.618 1407.75 165.695 1410.27 165.695Z" fill="black"/>
<path d="M1410.27 240.752C1412.78 240.752 1414.83 238.675 1414.83 236.113C1414.83 233.551 1412.78 231.474 1410.27 231.474C1407.75 231.474 1405.71 233.551 1405.71 236.113C1405.71 238.675 1407.75 240.752 1410.27 240.752Z" fill="black"/>
<path d="M1477.68 165.695C1480.2 165.695 1482.24 163.618 1482.24 161.056C1482.24 158.494 1480.2 156.417 1477.68 156.417C1475.16 156.417 1473.12 158.494 1473.12 161.056C1473.12 163.618 1475.16 165.695 1477.68 165.695Z" fill="black"/>
<path d="M1477.68 240.752C1480.2 240.752 1482.24 238.675 1482.24 236.113C1482.24 233.551 1480.2 231.474 1477.68 231.474C1475.16 231.474 1473.12 233.551 1473.12 236.113C1473.12 238.675 1475.16 240.752 1477.68 240.752Z" fill="black"/>
<path d="M1544.19 165.695C1546.71 165.695 1548.75 163.618 1548.75 161.056C1548.75 158.494 1546.71 156.417 1544.19 156.417C1541.67 156.417 1539.63 158.494 1539.63 161.056C1539.63 163.618 1541.67 165.695 1544.19 165.695Z" fill="black"/>
<path d="M1544.19 240.752C1546.71 240.752 1548.75 238.675 1548.75 236.113C1548.75 233.551 1546.71 231.474 1544.19 231.474C1541.67 231.474 1539.63 233.551 1539.63 236.113C1539.63 238.675 1541.67 240.752 1544.19 240.752Z" fill="black"/>
<path d="M1611.6 165.695C1614.12 165.695 1616.16 163.618 1616.16 161.056C1616.16 158.494 1614.12 156.417 1611.6 156.417C1609.08 156.417 1607.04 158.494 1607.04 161.056C1607.04 163.618 1609.08 165.695 1611.6 165.695Z" fill="black"/>
<path d="M1611.6 240.752C1614.12 240.752 1616.16 238.675 1616.16 236.113C1616.16 233.551 1614.12 231.474 1611.6 231.474C1609.08 231.474 1607.04 233.551 1607.04 236.113C1607.04 238.675 1609.08 240.752 1611.6 240.752Z" fill="black"/>
<path d="M1678.11 165.695C1680.63 165.695 1682.67 163.618 1682.67 161.056C1682.67 158.494 1680.63 156.417 1678.11 156.417C1675.59 156.417 1673.55 158.494 1673.55 161.056C1673.55 163.618 1675.59 165.695 1678.11 165.695Z" fill="black"/>
<path d="M1678.11 240.752C1680.63 240.752 1682.67 238.675 1682.67 236.113C1682.67 233.551 1680.63 231.474 1678.11 231.474C1675.59 231.474 1673.55 233.551 1673.55 236.113C1673.55 238.675 1675.59 240.752 1678.11 240.752Z" fill="black"/>
<path d="M1745.52 165.695C1748.04 165.695 1750.08 163.618 1750.08 161.056C1750.08 158.494 1748.04 156.417 1745.52 156.417C1743 156.417 1740.96 158.494 1740.96 161.056C1740.96 163.618 1743 165.695 1745.52 165.695Z" fill="black"/>
<path d="M1745.52 240.752C1748.04 240.752 1750.08 238.675 1750.08 236.113C1750.08 233.551 1748.04 231.474 1745.52 231.474C1743 231.474 1740.96 233.551 1740.96 236.113C1740.96 238.675 1743 240.752 1745.52 240.752Z" fill="black"/>
<path d="M1812.01 165.695C1814.53 165.695 1816.57 163.618 1816.57 161.056C1816.57 158.494 1814.53 156.417 1812.01 156.417C1809.49 156.417 1807.45 158.494 1807.45 161.056C1807.45 163.618 1809.49 165.695 1812.01 165.695Z" fill="black"/>
<path d="M1812.01 240.752C1814.53 240.752 1816.57 238.675 1816.57 236.113C1816.57 233.551 1814.53 231.474 1812.01 231.474C1809.49 231.474 1807.45 233.551 1807.45 236.113C1807.45 238.675 1809.49 240.752 1812.01 240.752Z" fill="black"/>
<path d="M4.56013 9.27822C7.07863 9.27822 9.12027 7.20123 9.12027 4.63911C9.12027 2.077 7.07863 0 4.56013 0C2.04164 0 0 2.077 0 4.63911C0 7.20123 2.04164 9.27822 4.56013 9.27822Z" fill="black"/>
<path d="M4.56013 84.3571C7.07863 84.3571 9.12027 82.2801 9.12027 79.718C9.12027 77.1559 7.07863 75.0789 4.56013 75.0789C2.04164 75.0789 0 77.1559 0 79.718C0 82.2801 2.04164 84.3571 4.56013 84.3571Z" fill="black"/>
<path d="M71.0694 9.27822C73.5879 9.27822 75.6296 7.20123 75.6296 4.63911C75.6296 2.077 73.5879 0 71.0694 0C68.5509 0 66.5093 2.077 66.5093 4.63911C66.5093 7.20123 68.5509 9.27822 71.0694 9.27822Z" fill="black"/>
<path d="M71.0694 84.3571C73.5879 84.3571 75.6296 82.2801 75.6296 79.718C75.6296 77.1559 73.5879 75.0789 71.0694 75.0789C68.5509 75.0789 66.5093 77.1559 66.5093 79.718C66.5093 82.2801 68.5509 84.3571 71.0694 84.3571Z" fill="black"/>
<path d="M138.482 9.27822C141 9.27822 143.042 7.20123 143.042 4.63911C143.042 2.077 141 0 138.482 0C135.963 0 133.922 2.077 133.922 4.63911C133.922 7.20123 135.963 9.27822 138.482 9.27822Z" fill="black"/>
<path d="M138.482 84.3571C141 84.3571 143.042 82.2801 143.042 79.718C143.042 77.1559 141 75.0789 138.482 75.0789C135.963 75.0789 133.922 77.1559 133.922 79.718C133.922 82.2801 135.963 84.3571 138.482 84.3571Z" fill="black"/>
<path d="M204.991 9.27822C207.51 9.27822 209.551 7.20123 209.551 4.63911C209.551 2.077 207.51 0 204.991 0C202.473 0 200.431 2.077 200.431 4.63911C200.431 7.20123 202.473 9.27822 204.991 9.27822Z" fill="black"/>
<path d="M204.991 84.3571C207.51 84.3571 209.551 82.2801 209.551 79.718C209.551 77.1559 207.51 75.0789 204.991 75.0789C202.473 75.0789 200.431 77.1559 200.431 79.718C200.431 82.2801 202.473 84.3571 204.991 84.3571Z" fill="black"/>
<path d="M272.404 9.27822C274.922 9.27822 276.964 7.20123 276.964 4.63911C276.964 2.077 274.922 0 272.404 0C269.885 0 267.844 2.077 267.844 4.63911C267.844 7.20123 269.885 9.27822 272.404 9.27822Z" fill="black"/>
<path d="M272.404 84.3571C274.922 84.3571 276.964 82.2801 276.964 79.718C276.964 77.1559 274.922 75.0789 272.404 75.0789C269.885 75.0789 267.844 77.1559 267.844 79.718C267.844 82.2801 269.885 84.3571 272.404 84.3571Z" fill="black"/>
<path d="M338.913 9.27822C341.431 9.27822 343.473 7.20123 343.473 4.63911C343.473 2.077 341.431 0 338.913 0C336.394 0 334.353 2.077 334.353 4.63911C334.353 7.20123 336.394 9.27822 338.913 9.27822Z" fill="black"/>
<path d="M338.913 84.3571C341.431 84.3571 343.473 82.2801 343.473 79.718C343.473 77.1559 341.431 75.0789 338.913 75.0789C336.394 75.0789 334.353 77.1559 334.353 79.718C334.353 82.2801 336.394 84.3571 338.913 84.3571Z" fill="black"/>
<path d="M406.326 9.27822C408.844 9.27822 410.886 7.20123 410.886 4.63911C410.886 2.077 408.844 0 406.326 0C403.807 0 401.765 2.077 401.765 4.63911C401.765 7.20123 403.807 9.27822 406.326 9.27822Z" fill="black"/>
<path d="M406.326 84.3571C408.844 84.3571 410.886 82.2801 410.886 79.718C410.886 77.1559 408.844 75.0789 406.326 75.0789C403.807 75.0789 401.765 77.1559 401.765 79.718C401.765 82.2801 403.807 84.3571 406.326 84.3571Z" fill="black"/>
<path d="M472.835 9.27822C475.353 9.27822 477.395 7.20123 477.395 4.63911C477.395 2.077 475.353 0 472.835 0C470.316 0 468.275 2.077 468.275 4.63911C468.275 7.20123 470.316 9.27822 472.835 9.27822Z" fill="black"/>
<path d="M472.835 84.3571C475.353 84.3571 477.395 82.2801 477.395 79.718C477.395 77.1559 475.353 75.0789 472.835 75.0789C470.316 75.0789 468.275 77.1559 468.275 79.718C468.275 82.2801 470.316 84.3571 472.835 84.3571Z" fill="black"/>
<path d="M540.247 9.27822C542.766 9.27822 544.807 7.20123 544.807 4.63911C544.807 2.077 542.766 0 540.247 0C537.729 0 535.687 2.077 535.687 4.63911C535.687 7.20123 537.729 9.27822 540.247 9.27822Z" fill="black"/>
<path d="M540.247 84.3571C542.766 84.3571 544.807 82.2801 544.807 79.718C544.807 77.1559 542.766 75.0789 540.247 75.0789C537.729 75.0789 535.687 77.1559 535.687 79.718C535.687 82.2801 537.729 84.3571 540.247 84.3571Z" fill="black"/>
<path d="M606.757 9.27822C609.275 9.27822 611.317 7.20123 611.317 4.63911C611.317 2.077 609.275 0 606.757 0C604.238 0 602.196 2.077 602.196 4.63911C602.196 7.20123 604.238 9.27822 606.757 9.27822Z" fill="black"/>
<path d="M606.757 84.3571C609.275 84.3571 611.317 82.2801 611.317 79.718C611.317 77.1559 609.275 75.0789 606.757 75.0789C604.238 75.0789 602.196 77.1559 602.196 79.718C602.196 82.2801 604.238 84.3571 606.757 84.3571Z" fill="black"/>
<path d="M674.169 9.27822C676.688 9.27822 678.729 7.20123 678.729 4.63911C678.729 2.077 676.688 0 674.169 0C671.651 0 669.609 2.077 669.609 4.63911C669.609 7.20123 671.651 9.27822 674.169 9.27822Z" fill="black"/>
<path d="M674.169 84.3571C676.688 84.3571 678.729 82.2801 678.729 79.718C678.729 77.1559 676.688 75.0789 674.169 75.0789C671.651 75.0789 669.609 77.1559 669.609 79.718C669.609 82.2801 671.651 84.3571 674.169 84.3571Z" fill="black"/>
<path d="M740.678 9.27822C743.197 9.27822 745.238 7.20123 745.238 4.63911C745.238 2.077 743.197 0 740.678 0C738.16 0 736.118 2.077 736.118 4.63911C736.118 7.20123 738.16 9.27822 740.678 9.27822Z" fill="black"/>
<path d="M740.678 84.3571C743.197 84.3571 745.238 82.2801 745.238 79.718C745.238 77.1559 743.197 75.0789 740.678 75.0789C738.16 75.0789 736.118 77.1559 736.118 79.718C736.118 82.2801 738.16 84.3571 740.678 84.3571Z" fill="black"/>
<path d="M808.091 9.27822C810.609 9.27822 812.651 7.20123 812.651 4.63911C812.651 2.077 810.609 0 808.091 0C805.572 0 803.531 2.077 803.531 4.63911C803.531 7.20123 805.572 9.27822 808.091 9.27822Z" fill="black"/>
<path d="M808.091 84.3571C810.609 84.3571 812.651 82.2801 812.651 79.718C812.651 77.1559 810.609 75.0789 808.091 75.0789C805.572 75.0789 803.531 77.1559 803.531 79.718C803.531 82.2801 805.572 84.3571 808.091 84.3571Z" fill="black"/>
<path d="M874.579 9.27822C877.097 9.27822 879.139 7.20123 879.139 4.63911C879.139 2.077 877.097 0 874.579 0C872.06 0 870.018 2.077 870.018 4.63911C870.018 7.20123 872.06 9.27822 874.579 9.27822Z" fill="black"/>
<path d="M874.579 84.3571C877.097 84.3571 879.139 82.2801 879.139 79.718C879.139 77.1559 877.097 75.0789 874.579 75.0789C872.06 75.0789 870.018 77.1559 870.018 79.718C870.018 82.2801 872.06 84.3571 874.579 84.3571Z" fill="black"/>
<path d="M942.013 9.27822C944.531 9.27822 946.573 7.20123 946.573 4.63911C946.573 2.077 944.531 0 942.013 0C939.494 0 937.452 2.077 937.452 4.63911C937.452 7.20123 939.494 9.27822 942.013 9.27822Z" fill="black"/>
<path d="M942.013 84.3571C944.531 84.3571 946.573 82.2801 946.573 79.718C946.573 77.1559 944.531 75.0789 942.013 75.0789C939.494 75.0789 937.452 77.1559 937.452 79.718C937.452 82.2801 939.494 84.3571 942.013 84.3571Z" fill="black"/>
<path d="M1008.5 9.27822C1011.02 9.27822 1013.06 7.20123 1013.06 4.63911C1013.06 2.077 1011.02 0 1008.5 0C1005.98 0 1003.94 2.077 1003.94 4.63911C1003.94 7.20123 1005.98 9.27822 1008.5 9.27822Z" fill="black"/>
<path d="M1008.5 84.3571C1011.02 84.3571 1013.06 82.2801 1013.06 79.718C1013.06 77.1559 1011.02 75.0789 1008.5 75.0789C1005.98 75.0789 1003.94 77.1559 1003.94 79.718C1003.94 82.2801 1005.98 84.3571 1008.5 84.3571Z" fill="black"/>
<path d="M1075.91 9.27822C1078.43 9.27822 1080.47 7.20123 1080.47 4.63911C1080.47 2.077 1078.43 0 1075.91 0C1073.39 0 1071.35 2.077 1071.35 4.63911C1071.35 7.20123 1073.39 9.27822 1075.91 9.27822Z" fill="black"/>
<path d="M1075.91 84.3571C1078.43 84.3571 1080.47 82.2801 1080.47 79.718C1080.47 77.1559 1078.43 75.0789 1075.91 75.0789C1073.39 75.0789 1071.35 77.1559 1071.35 79.718C1071.35 82.2801 1073.39 84.3571 1075.91 84.3571Z" fill="black"/>
<path d="M1142.42 9.27822C1144.94 9.27822 1146.98 7.20123 1146.98 4.63911C1146.98 2.077 1144.94 0 1142.42 0C1139.9 0 1137.86 2.077 1137.86 4.63911C1137.86 7.20123 1139.9 9.27822 1142.42 9.27822Z" fill="black"/>
<path d="M1142.42 84.3571C1144.94 84.3571 1146.98 82.2801 1146.98 79.718C1146.98 77.1559 1144.94 75.0789 1142.42 75.0789C1139.9 75.0789 1137.86 77.1559 1137.86 79.718C1137.86 82.2801 1139.9 84.3571 1142.42 84.3571Z" fill="black"/>
<path d="M1209.83 9.27822C1212.35 9.27822 1214.39 7.20123 1214.39 4.63911C1214.39 2.077 1212.35 0 1209.83 0C1207.32 0 1205.27 2.077 1205.27 4.63911C1205.27 7.20123 1207.32 9.27822 1209.83 9.27822Z" fill="black"/>
<path d="M1209.83 84.3571C1212.35 84.3571 1214.39 82.2801 1214.39 79.718C1214.39 77.1559 1212.35 75.0789 1209.83 75.0789C1207.32 75.0789 1205.27 77.1559 1205.27 79.718C1205.27 82.2801 1207.32 84.3571 1209.83 84.3571Z" fill="black"/>
<path d="M1276.34 9.27822C1278.86 9.27822 1280.9 7.20123 1280.9 4.63911C1280.9 2.077 1278.86 0 1276.34 0C1273.83 0 1271.78 2.077 1271.78 4.63911C1271.78 7.20123 1273.83 9.27822 1276.34 9.27822Z" fill="black"/>
<path d="M1276.34 84.3571C1278.86 84.3571 1280.9 82.2801 1280.9 79.718C1280.9 77.1559 1278.86 75.0789 1276.34 75.0789C1273.83 75.0789 1271.78 77.1559 1271.78 79.718C1271.78 82.2801 1273.83 84.3571 1276.34 84.3571Z" fill="black"/>
<path d="M1343.76 9.27822C1346.27 9.27822 1348.32 7.20123 1348.32 4.63911C1348.32 2.077 1346.27 0 1343.76 0C1341.24 0 1339.2 2.077 1339.2 4.63911C1339.2 7.20123 1341.24 9.27822 1343.76 9.27822Z" fill="black"/>
<path d="M1343.76 84.3571C1346.27 84.3571 1348.32 82.2801 1348.32 79.718C1348.32 77.1559 1346.27 75.0789 1343.76 75.0789C1341.24 75.0789 1339.2 77.1559 1339.2 79.718C1339.2 82.2801 1341.24 84.3571 1343.76 84.3571Z" fill="black"/>
<path d="M1410.27 9.27822C1412.78 9.27822 1414.83 7.20123 1414.83 4.63911C1414.83 2.077 1412.78 0 1410.27 0C1407.75 0 1405.71 2.077 1405.71 4.63911C1405.71 7.20123 1407.75 9.27822 1410.27 9.27822Z" fill="black"/>
<path d="M1410.27 84.3571C1412.78 84.3571 1414.83 82.2801 1414.83 79.718C1414.83 77.1559 1412.78 75.0789 1410.27 75.0789C1407.75 75.0789 1405.71 77.1559 1405.71 79.718C1405.71 82.2801 1407.75 84.3571 1410.27 84.3571Z" fill="black"/>
<path d="M1477.68 9.27822C1480.2 9.27822 1482.24 7.20123 1482.24 4.63911C1482.24 2.077 1480.2 0 1477.68 0C1475.16 0 1473.12 2.077 1473.12 4.63911C1473.12 7.20123 1475.16 9.27822 1477.68 9.27822Z" fill="black"/>
<path d="M1477.68 84.3571C1480.2 84.3571 1482.24 82.2801 1482.24 79.718C1482.24 77.1559 1480.2 75.0789 1477.68 75.0789C1475.16 75.0789 1473.12 77.1559 1473.12 79.718C1473.12 82.2801 1475.16 84.3571 1477.68 84.3571Z" fill="black"/>
<path d="M1544.19 9.27822C1546.71 9.27822 1548.75 7.20123 1548.75 4.63911C1548.75 2.077 1546.71 0 1544.19 0C1541.67 0 1539.63 2.077 1539.63 4.63911C1539.63 7.20123 1541.67 9.27822 1544.19 9.27822Z" fill="black"/>
<path d="M1544.19 84.3571C1546.71 84.3571 1548.75 82.2801 1548.75 79.718C1548.75 77.1559 1546.71 75.0789 1544.19 75.0789C1541.67 75.0789 1539.63 77.1559 1539.63 79.718C1539.63 82.2801 1541.67 84.3571 1544.19 84.3571Z" fill="black"/>
<path d="M1611.6 9.27822C1614.12 9.27822 1616.16 7.20123 1616.16 4.63911C1616.16 2.077 1614.12 0 1611.6 0C1609.08 0 1607.04 2.077 1607.04 4.63911C1607.04 7.20123 1609.08 9.27822 1611.6 9.27822Z" fill="black"/>
<path d="M1611.6 84.3571C1614.12 84.3571 1616.16 82.2801 1616.16 79.718C1616.16 77.1559 1614.12 75.0789 1611.6 75.0789C1609.08 75.0789 1607.04 77.1559 1607.04 79.718C1607.04 82.2801 1609.08 84.3571 1611.6 84.3571Z" fill="black"/>
<path d="M1678.11 9.27822C1680.63 9.27822 1682.67 7.20123 1682.67 4.63911C1682.67 2.077 1680.63 0 1678.11 0C1675.59 0 1673.55 2.077 1673.55 4.63911C1673.55 7.20123 1675.59 9.27822 1678.11 9.27822Z" fill="black"/>
<path d="M1678.11 84.3571C1680.63 84.3571 1682.67 82.2801 1682.67 79.718C1682.67 77.1559 1680.63 75.0789 1678.11 75.0789C1675.59 75.0789 1673.55 77.1559 1673.55 79.718C1673.55 82.2801 1675.59 84.3571 1678.11 84.3571Z" fill="black"/>
<path d="M1745.52 9.27822C1748.04 9.27822 1750.08 7.20123 1750.08 4.63911C1750.08 2.077 1748.04 0 1745.52 0C1743 0 1740.96 2.077 1740.96 4.63911C1740.96 7.20123 1743 9.27822 1745.52 9.27822Z" fill="black"/>
<path d="M1745.52 84.3571C1748.04 84.3571 1750.08 82.2801 1750.08 79.718C1750.08 77.1559 1748.04 75.0789 1745.52 75.0789C1743 75.0789 1740.96 77.1559 1740.96 79.718C1740.96 82.2801 1743 84.3571 1745.52 84.3571Z" fill="black"/>
<path d="M1812.01 9.27822C1814.53 9.27822 1816.57 7.20123 1816.57 4.63911C1816.57 2.077 1814.53 0 1812.01 0C1809.49 0 1807.45 2.077 1807.45 4.63911C1807.45 7.20123 1809.49 9.27822 1812.01 9.27822Z" fill="black"/>
<path d="M1812.01 84.3571C1814.53 84.3571 1816.57 82.2801 1816.57 79.718C1816.57 77.1559 1814.53 75.0789 1812.01 75.0789C1809.49 75.0789 1807.45 77.1559 1807.45 79.718C1807.45 82.2801 1809.49 84.3571 1812.01 84.3571Z" fill="black"/>
<path d="M4.56013 322.09C7.07863 322.09 9.12027 320.013 9.12027 317.451C9.12027 314.889 7.07863 312.812 4.56013 312.812C2.04164 312.812 0 314.889 0 317.451C0 320.013 2.04164 322.09 4.56013 322.09Z" fill="black"/>
<path d="M4.56013 397.169C7.07863 397.169 9.12027 395.092 9.12027 392.53C9.12027 389.968 7.07863 387.891 4.56013 387.891C2.04164 387.891 0 389.968 0 392.53C0 395.092 2.04164 397.169 4.56013 397.169Z" fill="black"/>
<path d="M71.0694 322.09C73.5879 322.09 75.6296 320.013 75.6296 317.451C75.6296 314.889 73.5879 312.812 71.0694 312.812C68.5509 312.812 66.5093 314.889 66.5093 317.451C66.5093 320.013 68.5509 322.09 71.0694 322.09Z" fill="black"/>
<path d="M71.0694 397.169C73.5879 397.169 75.6296 395.092 75.6296 392.53C75.6296 389.968 73.5879 387.891 71.0694 387.891C68.5509 387.891 66.5093 389.968 66.5093 392.53C66.5093 395.092 68.5509 397.169 71.0694 397.169Z" fill="black"/>
<path d="M138.482 322.09C141 322.09 143.042 320.013 143.042 317.451C143.042 314.889 141 312.812 138.482 312.812C135.963 312.812 133.922 314.889 133.922 317.451C133.922 320.013 135.963 322.09 138.482 322.09Z" fill="black"/>
<path d="M138.482 397.169C141 397.169 143.042 395.092 143.042 392.53C143.042 389.968 141 387.891 138.482 387.891C135.963 387.891 133.922 389.968 133.922 392.53C133.922 395.092 135.963 397.169 138.482 397.169Z" fill="black"/>
<path d="M204.991 322.09C207.51 322.09 209.551 320.013 209.551 317.451C209.551 314.889 207.51 312.812 204.991 312.812C202.473 312.812 200.431 314.889 200.431 317.451C200.431 320.013 202.473 322.09 204.991 322.09Z" fill="black"/>
<path d="M204.991 397.169C207.51 397.169 209.551 395.092 209.551 392.53C209.551 389.968 207.51 387.891 204.991 387.891C202.473 387.891 200.431 389.968 200.431 392.53C200.431 395.092 202.473 397.169 204.991 397.169Z" fill="black"/>
<path d="M272.404 322.09C274.922 322.09 276.964 320.013 276.964 317.451C276.964 314.889 274.922 312.812 272.404 312.812C269.885 312.812 267.844 314.889 267.844 317.451C267.844 320.013 269.885 322.09 272.404 322.09Z" fill="black"/>
<path d="M272.404 397.169C274.922 397.169 276.964 395.092 276.964 392.53C276.964 389.968 274.922 387.891 272.404 387.891C269.885 387.891 267.844 389.968 267.844 392.53C267.844 395.092 269.885 397.169 272.404 397.169Z" fill="black"/>
<path d="M338.913 322.09C341.431 322.09 343.473 320.013 343.473 317.451C343.473 314.889 341.431 312.812 338.913 312.812C336.394 312.812 334.353 314.889 334.353 317.451C334.353 320.013 336.394 322.09 338.913 322.09Z" fill="black"/>
<path d="M338.913 397.169C341.431 397.169 343.473 395.092 343.473 392.53C343.473 389.968 341.431 387.891 338.913 387.891C336.394 387.891 334.353 389.968 334.353 392.53C334.353 395.092 336.394 397.169 338.913 397.169Z" fill="black"/>
<path d="M406.326 322.09C408.844 322.09 410.886 320.013 410.886 317.451C410.886 314.889 408.844 312.812 406.326 312.812C403.807 312.812 401.765 314.889 401.765 317.451C401.765 320.013 403.807 322.09 406.326 322.09Z" fill="black"/>
<path d="M406.326 397.169C408.844 397.169 410.886 395.092 410.886 392.53C410.886 389.968 408.844 387.891 406.326 387.891C403.807 387.891 401.765 389.968 401.765 392.53C401.765 395.092 403.807 397.169 406.326 397.169Z" fill="black"/>
<path d="M472.835 322.09C475.353 322.09 477.395 320.013 477.395 317.451C477.395 314.889 475.353 312.812 472.835 312.812C470.316 312.812 468.275 314.889 468.275 317.451C468.275 320.013 470.316 322.09 472.835 322.09Z" fill="black"/>
<path d="M472.835 397.169C475.353 397.169 477.395 395.092 477.395 392.53C477.395 389.968 475.353 387.891 472.835 387.891C470.316 387.891 468.275 389.968 468.275 392.53C468.275 395.092 470.316 397.169 472.835 397.169Z" fill="black"/>
<path d="M540.247 322.09C542.766 322.09 544.807 320.013 544.807 317.451C544.807 314.889 542.766 312.812 540.247 312.812C537.729 312.812 535.687 314.889 535.687 317.451C535.687 320.013 537.729 322.09 540.247 322.09Z" fill="black"/>
<path d="M540.247 397.169C542.766 397.169 544.807 395.092 544.807 392.53C544.807 389.968 542.766 387.891 540.247 387.891C537.729 387.891 535.687 389.968 535.687 392.53C535.687 395.092 537.729 397.169 540.247 397.169Z" fill="black"/>
<path d="M606.757 322.09C609.275 322.09 611.317 320.013 611.317 317.451C611.317 314.889 609.275 312.812 606.757 312.812C604.238 312.812 602.196 314.889 602.196 317.451C602.196 320.013 604.238 322.09 606.757 322.09Z" fill="black"/>
<path d="M606.757 397.169C609.275 397.169 611.317 395.092 611.317 392.53C611.317 389.968 609.275 387.891 606.757 387.891C604.238 387.891 602.196 389.968 602.196 392.53C602.196 395.092 604.238 397.169 606.757 397.169Z" fill="black"/>
<path d="M674.169 322.09C676.688 322.09 678.729 320.013 678.729 317.451C678.729 314.889 676.688 312.812 674.169 312.812C671.651 312.812 669.609 314.889 669.609 317.451C669.609 320.013 671.651 322.09 674.169 322.09Z" fill="black"/>
<path d="M674.169 397.169C676.688 397.169 678.729 395.092 678.729 392.53C678.729 389.968 676.688 387.891 674.169 387.891C671.651 387.891 669.609 389.968 669.609 392.53C669.609 395.092 671.651 397.169 674.169 397.169Z" fill="black"/>
<path d="M740.678 322.09C743.197 322.09 745.238 320.013 745.238 317.451C745.238 314.889 743.197 312.812 740.678 312.812C738.16 312.812 736.118 314.889 736.118 317.451C736.118 320.013 738.16 322.09 740.678 322.09Z" fill="black"/>
<path d="M740.678 397.169C743.197 397.169 745.238 395.092 745.238 392.53C745.238 389.968 743.197 387.891 740.678 387.891C738.16 387.891 736.118 389.968 736.118 392.53C736.118 395.092 738.16 397.169 740.678 397.169Z" fill="black"/>
<path d="M808.091 322.09C810.609 322.09 812.651 320.013 812.651 317.451C812.651 314.889 810.609 312.812 808.091 312.812C805.572 312.812 803.531 314.889 803.531 317.451C803.531 320.013 805.572 322.09 808.091 322.09Z" fill="black"/>
<path d="M808.091 397.169C810.609 397.169 812.651 395.092 812.651 392.53C812.651 389.968 810.609 387.891 808.091 387.891C805.572 387.891 803.531 389.968 803.531 392.53C803.531 395.092 805.572 397.169 808.091 397.169Z" fill="black"/>
<path d="M874.579 322.09C877.097 322.09 879.139 320.013 879.139 317.451C879.139 314.889 877.097 312.812 874.579 312.812C872.06 312.812 870.018 314.889 870.018 317.451C870.018 320.013 872.06 322.09 874.579 322.09Z" fill="black"/>
<path d="M874.579 397.169C877.097 397.169 879.139 395.092 879.139 392.53C879.139 389.968 877.097 387.891 874.579 387.891C872.06 387.891 870.018 389.968 870.018 392.53C870.018 395.092 872.06 397.169 874.579 397.169Z" fill="black"/>
<path d="M942.013 322.09C944.531 322.09 946.573 320.013 946.573 317.451C946.573 314.889 944.531 312.812 942.013 312.812C939.494 312.812 937.452 314.889 937.452 317.451C937.452 320.013 939.494 322.09 942.013 322.09Z" fill="black"/>
<path d="M942.013 397.169C944.531 397.169 946.573 395.092 946.573 392.53C946.573 389.968 944.531 387.891 942.013 387.891C939.494 387.891 937.452 389.968 937.452 392.53C937.452 395.092 939.494 397.169 942.013 397.169Z" fill="black"/>
<path d="M1008.5 322.09C1011.02 322.09 1013.06 320.013 1013.06 317.451C1013.06 314.889 1011.02 312.812 1008.5 312.812C1005.98 312.812 1003.94 314.889 1003.94 317.451C1003.94 320.013 1005.98 322.09 1008.5 322.09Z" fill="black"/>
<path d="M1008.5 397.169C1011.02 397.169 1013.06 395.092 1013.06 392.53C1013.06 389.968 1011.02 387.891 1008.5 387.891C1005.98 387.891 1003.94 389.968 1003.94 392.53C1003.94 395.092 1005.98 397.169 1008.5 397.169Z" fill="black"/>
<path d="M1075.91 322.09C1078.43 322.09 1080.47 320.013 1080.47 317.451C1080.47 314.889 1078.43 312.812 1075.91 312.812C1073.39 312.812 1071.35 314.889 1071.35 317.451C1071.35 320.013 1073.39 322.09 1075.91 322.09Z" fill="black"/>
<path d="M1075.91 397.169C1078.43 397.169 1080.47 395.092 1080.47 392.53C1080.47 389.968 1078.43 387.891 1075.91 387.891C1073.39 387.891 1071.35 389.968 1071.35 392.53C1071.35 395.092 1073.39 397.169 1075.91 397.169Z" fill="black"/>
<path d="M1142.42 322.09C1144.94 322.09 1146.98 320.013 1146.98 317.451C1146.98 314.889 1144.94 312.812 1142.42 312.812C1139.9 312.812 1137.86 314.889 1137.86 317.451C1137.86 320.013 1139.9 322.09 1142.42 322.09Z" fill="black"/>
<path d="M1142.42 397.169C1144.94 397.169 1146.98 395.092 1146.98 392.53C1146.98 389.968 1144.94 387.891 1142.42 387.891C1139.9 387.891 1137.86 389.968 1137.86 392.53C1137.86 395.092 1139.9 397.169 1142.42 397.169Z" fill="black"/>
<path d="M1209.83 322.09C1212.35 322.09 1214.39 320.013 1214.39 317.451C1214.39 314.889 1212.35 312.812 1209.83 312.812C1207.32 312.812 1205.27 314.889 1205.27 317.451C1205.27 320.013 1207.32 322.09 1209.83 322.09Z" fill="black"/>
<path d="M1209.83 397.169C1212.35 397.169 1214.39 395.092 1214.39 392.53C1214.39 389.968 1212.35 387.891 1209.83 387.891C1207.32 387.891 1205.27 389.968 1205.27 392.53C1205.27 395.092 1207.32 397.169 1209.83 397.169Z" fill="black"/>
<path d="M1276.34 322.09C1278.86 322.09 1280.9 320.013 1280.9 317.451C1280.9 314.889 1278.86 312.812 1276.34 312.812C1273.83 312.812 1271.78 314.889 1271.78 317.451C1271.78 320.013 1273.83 322.09 1276.34 322.09Z" fill="black"/>
<path d="M1276.34 397.169C1278.86 397.169 1280.9 395.092 1280.9 392.53C1280.9 389.968 1278.86 387.891 1276.34 387.891C1273.83 387.891 1271.78 389.968 1271.78 392.53C1271.78 395.092 1273.83 397.169 1276.34 397.169Z" fill="black"/>
<path d="M1343.76 322.09C1346.27 322.09 1348.32 320.013 1348.32 317.451C1348.32 314.889 1346.27 312.812 1343.76 312.812C1341.24 312.812 1339.2 314.889 1339.2 317.451C1339.2 320.013 1341.24 322.09 1343.76 322.09Z" fill="black"/>
<path d="M1343.76 397.169C1346.27 397.169 1348.32 395.092 1348.32 392.53C1348.32 389.968 1346.27 387.891 1343.76 387.891C1341.24 387.891 1339.2 389.968 1339.2 392.53C1339.2 395.092 1341.24 397.169 1343.76 397.169Z" fill="black"/>
<path d="M1410.27 322.09C1412.78 322.09 1414.83 320.013 1414.83 317.451C1414.83 314.889 1412.78 312.812 1410.27 312.812C1407.75 312.812 1405.71 314.889 1405.71 317.451C1405.71 320.013 1407.75 322.09 1410.27 322.09Z" fill="black"/>
<path d="M1410.27 397.169C1412.78 397.169 1414.83 395.092 1414.83 392.53C1414.83 389.968 1412.78 387.891 1410.27 387.891C1407.75 387.891 1405.71 389.968 1405.71 392.53C1405.71 395.092 1407.75 397.169 1410.27 397.169Z" fill="black"/>
<path d="M1477.68 322.09C1480.2 322.09 1482.24 320.013 1482.24 317.451C1482.24 314.889 1480.2 312.812 1477.68 312.812C1475.16 312.812 1473.12 314.889 1473.12 317.451C1473.12 320.013 1475.16 322.09 1477.68 322.09Z" fill="black"/>
<path d="M1477.68 397.169C1480.2 397.169 1482.24 395.092 1482.24 392.53C1482.24 389.968 1480.2 387.891 1477.68 387.891C1475.16 387.891 1473.12 389.968 1473.12 392.53C1473.12 395.092 1475.16 397.169 1477.68 397.169Z" fill="black"/>
<path d="M1544.19 322.09C1546.71 322.09 1548.75 320.013 1548.75 317.451C1548.75 314.889 1546.71 312.812 1544.19 312.812C1541.67 312.812 1539.63 314.889 1539.63 317.451C1539.63 320.013 1541.67 322.09 1544.19 322.09Z" fill="black"/>
<path d="M1544.19 397.169C1546.71 397.169 1548.75 395.092 1548.75 392.53C1548.75 389.968 1546.71 387.891 1544.19 387.891C1541.67 387.891 1539.63 389.968 1539.63 392.53C1539.63 395.092 1541.67 397.169 1544.19 397.169Z" fill="black"/>
<path d="M1611.6 322.09C1614.12 322.09 1616.16 320.013 1616.16 317.451C1616.16 314.889 1614.12 312.812 1611.6 312.812C1609.08 312.812 1607.04 314.889 1607.04 317.451C1607.04 320.013 1609.08 322.09 1611.6 322.09Z" fill="black"/>
<path d="M1611.6 397.169C1614.12 397.169 1616.16 395.092 1616.16 392.53C1616.16 389.968 1614.12 387.891 1611.6 387.891C1609.08 387.891 1607.04 389.968 1607.04 392.53C1607.04 395.092 1609.08 397.169 1611.6 397.169Z" fill="black"/>
<path d="M1678.11 322.09C1680.63 322.09 1682.67 320.013 1682.67 317.451C1682.67 314.889 1680.63 312.812 1678.11 312.812C1675.59 312.812 1673.55 314.889 1673.55 317.451C1673.55 320.013 1675.59 322.09 1678.11 322.09Z" fill="black"/>
<path d="M1678.11 397.169C1680.63 397.169 1682.67 395.092 1682.67 392.53C1682.67 389.968 1680.63 387.891 1678.11 387.891C1675.59 387.891 1673.55 389.968 1673.55 392.53C1673.55 395.092 1675.59 397.169 1678.11 397.169Z" fill="black"/>
<path d="M1745.52 322.09C1748.04 322.09 1750.08 320.013 1750.08 317.451C1750.08 314.889 1748.04 312.812 1745.52 312.812C1743 312.812 1740.96 314.889 1740.96 317.451C1740.96 320.013 1743 322.09 1745.52 322.09Z" fill="black"/>
<path d="M1745.52 397.169C1748.04 397.169 1750.08 395.092 1750.08 392.53C1750.08 389.968 1748.04 387.891 1745.52 387.891C1743 387.891 1740.96 389.968 1740.96 392.53C1740.96 395.092 1743 397.169 1745.52 397.169Z" fill="black"/>
<path d="M1812.01 322.09C1814.53 322.09 1816.57 320.013 1816.57 317.451C1816.57 314.889 1814.53 312.812 1812.01 312.812C1809.49 312.812 1807.45 314.889 1807.45 317.451C1807.45 320.013 1809.49 322.09 1812.01 322.09Z" fill="black"/>
<path d="M1812.01 397.169C1814.53 397.169 1816.57 395.092 1816.57 392.53C1816.57 389.968 1814.53 387.891 1812.01 387.891C1809.49 387.891 1807.45 389.968 1807.45 392.53C1807.45 395.092 1809.49 397.169 1812.01 397.169Z" fill="black"/>
<path d="M4.56013 478.506C7.07863 478.506 9.12027 476.429 9.12027 473.867C9.12027 471.305 7.07863 469.228 4.56013 469.228C2.04164 469.228 0 471.305 0 473.867C0 476.429 2.04164 478.506 4.56013 478.506Z" fill="black"/>
<path d="M4.56013 553.563C7.07863 553.563 9.12027 551.486 9.12027 548.924C9.12027 546.362 7.07863 544.285 4.56013 544.285C2.04164 544.285 0 546.362 0 548.924C0 551.486 2.04164 553.563 4.56013 553.563Z" fill="black"/>
<path d="M71.0694 478.506C73.5879 478.506 75.6296 476.429 75.6296 473.867C75.6296 471.305 73.5879 469.228 71.0694 469.228C68.5509 469.228 66.5093 471.305 66.5093 473.867C66.5093 476.429 68.5509 478.506 71.0694 478.506Z" fill="black"/>
<path d="M71.0694 553.563C73.5879 553.563 75.6296 551.486 75.6296 548.924C75.6296 546.362 73.5879 544.285 71.0694 544.285C68.5509 544.285 66.5093 546.362 66.5093 548.924C66.5093 551.486 68.5509 553.563 71.0694 553.563Z" fill="black"/>
<path d="M138.482 478.506C141 478.506 143.042 476.429 143.042 473.867C143.042 471.305 141 469.228 138.482 469.228C135.963 469.228 133.922 471.305 133.922 473.867C133.922 476.429 135.963 478.506 138.482 478.506Z" fill="black"/>
<path d="M138.482 553.563C141 553.563 143.042 551.486 143.042 548.924C143.042 546.362 141 544.285 138.482 544.285C135.963 544.285 133.922 546.362 133.922 548.924C133.922 551.486 135.963 553.563 138.482 553.563Z" fill="black"/>
<path d="M204.991 478.506C207.51 478.506 209.551 476.429 209.551 473.867C209.551 471.305 207.51 469.228 204.991 469.228C202.473 469.228 200.431 471.305 200.431 473.867C200.431 476.429 202.473 478.506 204.991 478.506Z" fill="black"/>
<path d="M204.991 553.563C207.51 553.563 209.551 551.486 209.551 548.924C209.551 546.362 207.51 544.285 204.991 544.285C202.473 544.285 200.431 546.362 200.431 548.924C200.431 551.486 202.473 553.563 204.991 553.563Z" fill="black"/>
<path d="M272.404 478.506C274.922 478.506 276.964 476.429 276.964 473.867C276.964 471.305 274.922 469.228 272.404 469.228C269.885 469.228 267.844 471.305 267.844 473.867C267.844 476.429 269.885 478.506 272.404 478.506Z" fill="black"/>
<path d="M272.404 553.563C274.922 553.563 276.964 551.486 276.964 548.924C276.964 546.362 274.922 544.285 272.404 544.285C269.885 544.285 267.844 546.362 267.844 548.924C267.844 551.486 269.885 553.563 272.404 553.563Z" fill="black"/>
<path d="M338.913 478.506C341.431 478.506 343.473 476.429 343.473 473.867C343.473 471.305 341.431 469.228 338.913 469.228C336.394 469.228 334.353 471.305 334.353 473.867C334.353 476.429 336.394 478.506 338.913 478.506Z" fill="black"/>
<path d="M338.913 553.563C341.431 553.563 343.473 551.486 343.473 548.924C343.473 546.362 341.431 544.285 338.913 544.285C336.394 544.285 334.353 546.362 334.353 548.924C334.353 551.486 336.394 553.563 338.913 553.563Z" fill="black"/>
<path d="M406.326 478.506C408.844 478.506 410.886 476.429 410.886 473.867C410.886 471.305 408.844 469.228 406.326 469.228C403.807 469.228 401.765 471.305 401.765 473.867C401.765 476.429 403.807 478.506 406.326 478.506Z" fill="black"/>
<path d="M406.326 553.563C408.844 553.563 410.886 551.486 410.886 548.924C410.886 546.362 408.844 544.285 406.326 544.285C403.807 544.285 401.765 546.362 401.765 548.924C401.765 551.486 403.807 553.563 406.326 553.563Z" fill="black"/>
<path d="M472.835 478.506C475.353 478.506 477.395 476.429 477.395 473.867C477.395 471.305 475.353 469.228 472.835 469.228C470.316 469.228 468.275 471.305 468.275 473.867C468.275 476.429 470.316 478.506 472.835 478.506Z" fill="black"/>
<path d="M472.835 553.563C475.353 553.563 477.395 551.486 477.395 548.924C477.395 546.362 475.353 544.285 472.835 544.285C470.316 544.285 468.275 546.362 468.275 548.924C468.275 551.486 470.316 553.563 472.835 553.563Z" fill="black"/>
<path d="M540.247 478.506C542.766 478.506 544.807 476.429 544.807 473.867C544.807 471.305 542.766 469.228 540.247 469.228C537.729 469.228 535.687 471.305 535.687 473.867C535.687 476.429 537.729 478.506 540.247 478.506Z" fill="black"/>
<path d="M540.247 553.563C542.766 553.563 544.807 551.486 544.807 548.924C544.807 546.362 542.766 544.285 540.247 544.285C537.729 544.285 535.687 546.362 535.687 548.924C535.687 551.486 537.729 553.563 540.247 553.563Z" fill="black"/>
<path d="M606.757 478.506C609.275 478.506 611.317 476.429 611.317 473.867C611.317 471.305 609.275 469.228 606.757 469.228C604.238 469.228 602.196 471.305 602.196 473.867C602.196 476.429 604.238 478.506 606.757 478.506Z" fill="black"/>
<path d="M606.757 553.563C609.275 553.563 611.317 551.486 611.317 548.924C611.317 546.362 609.275 544.285 606.757 544.285C604.238 544.285 602.196 546.362 602.196 548.924C602.196 551.486 604.238 553.563 606.757 553.563Z" fill="black"/>
<path d="M674.169 478.506C676.688 478.506 678.729 476.429 678.729 473.867C678.729 471.305 676.688 469.228 674.169 469.228C671.651 469.228 669.609 471.305 669.609 473.867C669.609 476.429 671.651 478.506 674.169 478.506Z" fill="black"/>
<path d="M674.169 553.563C676.688 553.563 678.729 551.486 678.729 548.924C678.729 546.362 676.688 544.285 674.169 544.285C671.651 544.285 669.609 546.362 669.609 548.924C669.609 551.486 671.651 553.563 674.169 553.563Z" fill="black"/>
<path d="M740.678 478.506C743.197 478.506 745.238 476.429 745.238 473.867C745.238 471.305 743.197 469.228 740.678 469.228C738.16 469.228 736.118 471.305 736.118 473.867C736.118 476.429 738.16 478.506 740.678 478.506Z" fill="black"/>
<path d="M740.678 553.563C743.197 553.563 745.238 551.486 745.238 548.924C745.238 546.362 743.197 544.285 740.678 544.285C738.16 544.285 736.118 546.362 736.118 548.924C736.118 551.486 738.16 553.563 740.678 553.563Z" fill="black"/>
<path d="M808.091 478.506C810.609 478.506 812.651 476.429 812.651 473.867C812.651 471.305 810.609 469.228 808.091 469.228C805.572 469.228 803.531 471.305 803.531 473.867C803.531 476.429 805.572 478.506 808.091 478.506Z" fill="black"/>
<path d="M808.091 553.563C810.609 553.563 812.651 551.486 812.651 548.924C812.651 546.362 810.609 544.285 808.091 544.285C805.572 544.285 803.531 546.362 803.531 548.924C803.531 551.486 805.572 553.563 808.091 553.563Z" fill="black"/>
<path d="M874.579 478.506C877.097 478.506 879.139 476.429 879.139 473.867C879.139 471.305 877.097 469.228 874.579 469.228C872.06 469.228 870.018 471.305 870.018 473.867C870.018 476.429 872.06 478.506 874.579 478.506Z" fill="black"/>
<path d="M874.579 553.563C877.097 553.563 879.139 551.486 879.139 548.924C879.139 546.362 877.097 544.285 874.579 544.285C872.06 544.285 870.018 546.362 870.018 548.924C870.018 551.486 872.06 553.563 874.579 553.563Z" fill="black"/>
<path d="M942.013 478.506C944.531 478.506 946.573 476.429 946.573 473.867C946.573 471.305 944.531 469.228 942.013 469.228C939.494 469.228 937.452 471.305 937.452 473.867C937.452 476.429 939.494 478.506 942.013 478.506Z" fill="black"/>
<path d="M942.013 553.563C944.531 553.563 946.573 551.486 946.573 548.924C946.573 546.362 944.531 544.285 942.013 544.285C939.494 544.285 937.452 546.362 937.452 548.924C937.452 551.486 939.494 553.563 942.013 553.563Z" fill="black"/>
<path d="M1008.5 478.506C1011.02 478.506 1013.06 476.429 1013.06 473.867C1013.06 471.305 1011.02 469.228 1008.5 469.228C1005.98 469.228 1003.94 471.305 1003.94 473.867C1003.94 476.429 1005.98 478.506 1008.5 478.506Z" fill="black"/>
<path d="M1008.5 553.563C1011.02 553.563 1013.06 551.486 1013.06 548.924C1013.06 546.362 1011.02 544.285 1008.5 544.285C1005.98 544.285 1003.94 546.362 1003.94 548.924C1003.94 551.486 1005.98 553.563 1008.5 553.563Z" fill="black"/>
<path d="M1075.91 478.506C1078.43 478.506 1080.47 476.429 1080.47 473.867C1080.47 471.305 1078.43 469.228 1075.91 469.228C1073.39 469.228 1071.35 471.305 1071.35 473.867C1071.35 476.429 1073.39 478.506 1075.91 478.506Z" fill="black"/>
<path d="M1075.91 553.563C1078.43 553.563 1080.47 551.486 1080.47 548.924C1080.47 546.362 1078.43 544.285 1075.91 544.285C1073.39 544.285 1071.35 546.362 1071.35 548.924C1071.35 551.486 1073.39 553.563 1075.91 553.563Z" fill="black"/>
<path d="M1142.42 478.506C1144.94 478.506 1146.98 476.429 1146.98 473.867C1146.98 471.305 1144.94 469.228 1142.42 469.228C1139.9 469.228 1137.86 471.305 1137.86 473.867C1137.86 476.429 1139.9 478.506 1142.42 478.506Z" fill="black"/>
<path d="M1142.42 553.563C1144.94 553.563 1146.98 551.486 1146.98 548.924C1146.98 546.362 1144.94 544.285 1142.42 544.285C1139.9 544.285 1137.86 546.362 1137.86 548.924C1137.86 551.486 1139.9 553.563 1142.42 553.563Z" fill="black"/>
<path d="M1209.83 478.506C1212.35 478.506 1214.39 476.429 1214.39 473.867C1214.39 471.305 1212.35 469.228 1209.83 469.228C1207.32 469.228 1205.27 471.305 1205.27 473.867C1205.27 476.429 1207.32 478.506 1209.83 478.506Z" fill="black"/>
<path d="M1209.83 553.563C1212.35 553.563 1214.39 551.486 1214.39 548.924C1214.39 546.362 1212.35 544.285 1209.83 544.285C1207.32 544.285 1205.27 546.362 1205.27 548.924C1205.27 551.486 1207.32 553.563 1209.83 553.563Z" fill="black"/>
<path d="M1276.34 478.506C1278.86 478.506 1280.9 476.429 1280.9 473.867C1280.9 471.305 1278.86 469.228 1276.34 469.228C1273.83 469.228 1271.78 471.305 1271.78 473.867C1271.78 476.429 1273.83 478.506 1276.34 478.506Z" fill="black"/>
<path d="M1276.34 553.563C1278.86 553.563 1280.9 551.486 1280.9 548.924C1280.9 546.362 1278.86 544.285 1276.34 544.285C1273.83 544.285 1271.78 546.362 1271.78 548.924C1271.78 551.486 1273.83 553.563 1276.34 553.563Z" fill="black"/>
<path d="M1343.76 478.506C1346.27 478.506 1348.32 476.429 1348.32 473.867C1348.32 471.305 1346.27 469.228 1343.76 469.228C1341.24 469.228 1339.2 471.305 1339.2 473.867C1339.2 476.429 1341.24 478.506 1343.76 478.506Z" fill="black"/>
<path d="M1343.76 553.563C1346.27 553.563 1348.32 551.486 1348.32 548.924C1348.32 546.362 1346.27 544.285 1343.76 544.285C1341.24 544.285 1339.2 546.362 1339.2 548.924C1339.2 551.486 1341.24 553.563 1343.76 553.563Z" fill="black"/>
<path d="M1410.27 478.506C1412.78 478.506 1414.83 476.429 1414.83 473.867C1414.83 471.305 1412.78 469.228 1410.27 469.228C1407.75 469.228 1405.71 471.305 1405.71 473.867C1405.71 476.429 1407.75 478.506 1410.27 478.506Z" fill="black"/>
<path d="M1410.27 553.563C1412.78 553.563 1414.83 551.486 1414.83 548.924C1414.83 546.362 1412.78 544.285 1410.27 544.285C1407.75 544.285 1405.71 546.362 1405.71 548.924C1405.71 551.486 1407.75 553.563 1410.27 553.563Z" fill="black"/>
<path d="M1477.68 478.506C1480.2 478.506 1482.24 476.429 1482.24 473.867C1482.24 471.305 1480.2 469.228 1477.68 469.228C1475.16 469.228 1473.12 471.305 1473.12 473.867C1473.12 476.429 1475.16 478.506 1477.68 478.506Z" fill="black"/>
<path d="M1477.68 553.563C1480.2 553.563 1482.24 551.486 1482.24 548.924C1482.24 546.362 1480.2 544.285 1477.68 544.285C1475.16 544.285 1473.12 546.362 1473.12 548.924C1473.12 551.486 1475.16 553.563 1477.68 553.563Z" fill="black"/>
<path d="M1544.19 478.506C1546.71 478.506 1548.75 476.429 1548.75 473.867C1548.75 471.305 1546.71 469.228 1544.19 469.228C1541.67 469.228 1539.63 471.305 1539.63 473.867C1539.63 476.429 1541.67 478.506 1544.19 478.506Z" fill="black"/>
<path d="M1544.19 553.563C1546.71 553.563 1548.75 551.486 1548.75 548.924C1548.75 546.362 1546.71 544.285 1544.19 544.285C1541.67 544.285 1539.63 546.362 1539.63 548.924C1539.63 551.486 1541.67 553.563 1544.19 553.563Z" fill="black"/>
<path d="M1611.6 478.506C1614.12 478.506 1616.16 476.429 1616.16 473.867C1616.16 471.305 1614.12 469.228 1611.6 469.228C1609.08 469.228 1607.04 471.305 1607.04 473.867C1607.04 476.429 1609.08 478.506 1611.6 478.506Z" fill="black"/>
<path d="M1611.6 553.563C1614.12 553.563 1616.16 551.486 1616.16 548.924C1616.16 546.362 1614.12 544.285 1611.6 544.285C1609.08 544.285 1607.04 546.362 1607.04 548.924C1607.04 551.486 1609.08 553.563 1611.6 553.563Z" fill="black"/>
<path d="M1678.11 478.506C1680.63 478.506 1682.67 476.429 1682.67 473.867C1682.67 471.305 1680.63 469.228 1678.11 469.228C1675.59 469.228 1673.55 471.305 1673.55 473.867C1673.55 476.429 1675.59 478.506 1678.11 478.506Z" fill="black"/>
<path d="M1678.11 553.563C1680.63 553.563 1682.67 551.486 1682.67 548.924C1682.67 546.362 1680.63 544.285 1678.11 544.285C1675.59 544.285 1673.55 546.362 1673.55 548.924C1673.55 551.486 1675.59 553.563 1678.11 553.563Z" fill="black"/>
<path d="M1745.52 478.506C1748.04 478.506 1750.08 476.429 1750.08 473.867C1750.08 471.305 1748.04 469.228 1745.52 469.228C1743 469.228 1740.96 471.305 1740.96 473.867C1740.96 476.429 1743 478.506 1745.52 478.506Z" fill="black"/>
<path d="M1745.52 553.563C1748.04 553.563 1750.08 551.486 1750.08 548.924C1750.08 546.362 1748.04 544.285 1745.52 544.285C1743 544.285 1740.96 546.362 1740.96 548.924C1740.96 551.486 1743 553.563 1745.52 553.563Z" fill="black"/>
<path d="M1812.01 478.506C1814.53 478.506 1816.57 476.429 1816.57 473.867C1816.57 471.305 1814.53 469.228 1812.01 469.228C1809.49 469.228 1807.45 471.305 1807.45 473.867C1807.45 476.429 1809.49 478.506 1812.01 478.506Z" fill="black"/>
<path d="M1812.01 553.563C1814.53 553.563 1816.57 551.486 1816.57 548.924C1816.57 546.362 1814.53 544.285 1812.01 544.285C1809.49 544.285 1807.45 546.362 1807.45 548.924C1807.45 551.486 1809.49 553.563 1812.01 553.563Z" fill="black"/>
<path d="M4.56013 634.901C7.07863 634.901 9.12027 632.824 9.12027 630.262C9.12027 627.7 7.07863 625.623 4.56013 625.623C2.04164 625.623 0 627.7 0 630.262C0 632.824 2.04164 634.901 4.56013 634.901Z" fill="black"/>
<path d="M4.56013 709.98C7.07863 709.98 9.12027 707.903 9.12027 705.341C9.12027 702.779 7.07863 700.702 4.56013 700.702C2.04164 700.702 0 702.779 0 705.341C0 707.903 2.04164 709.98 4.56013 709.98Z" fill="black"/>
<path d="M71.0694 634.901C73.5879 634.901 75.6296 632.824 75.6296 630.262C75.6296 627.7 73.5879 625.623 71.0694 625.623C68.5509 625.623 66.5093 627.7 66.5093 630.262C66.5093 632.824 68.5509 634.901 71.0694 634.901Z" fill="black"/>
<path d="M71.0694 709.98C73.5879 709.98 75.6296 707.903 75.6296 705.341C75.6296 702.779 73.5879 700.702 71.0694 700.702C68.5509 700.702 66.5093 702.779 66.5093 705.341C66.5093 707.903 68.5509 709.98 71.0694 709.98Z" fill="black"/>
<path d="M138.482 634.901C141 634.901 143.042 632.824 143.042 630.262C143.042 627.7 141 625.623 138.482 625.623C135.963 625.623 133.922 627.7 133.922 630.262C133.922 632.824 135.963 634.901 138.482 634.901Z" fill="black"/>
<path d="M138.482 709.98C141 709.98 143.042 707.903 143.042 705.341C143.042 702.779 141 700.702 138.482 700.702C135.963 700.702 133.922 702.779 133.922 705.341C133.922 707.903 135.963 709.98 138.482 709.98Z" fill="black"/>
<path d="M204.991 634.901C207.51 634.901 209.551 632.824 209.551 630.262C209.551 627.7 207.51 625.623 204.991 625.623C202.473 625.623 200.431 627.7 200.431 630.262C200.431 632.824 202.473 634.901 204.991 634.901Z" fill="black"/>
<path d="M204.991 709.98C207.51 709.98 209.551 707.903 209.551 705.341C209.551 702.779 207.51 700.702 204.991 700.702C202.473 700.702 200.431 702.779 200.431 705.341C200.431 707.903 202.473 709.98 204.991 709.98Z" fill="black"/>
<path d="M272.404 634.901C274.922 634.901 276.964 632.824 276.964 630.262C276.964 627.7 274.922 625.623 272.404 625.623C269.885 625.623 267.844 627.7 267.844 630.262C267.844 632.824 269.885 634.901 272.404 634.901Z" fill="black"/>
<path d="M272.404 709.98C274.922 709.98 276.964 707.903 276.964 705.341C276.964 702.779 274.922 700.702 272.404 700.702C269.885 700.702 267.844 702.779 267.844 705.341C267.844 707.903 269.885 709.98 272.404 709.98Z" fill="black"/>
<path d="M338.913 634.901C341.431 634.901 343.473 632.824 343.473 630.262C343.473 627.7 341.431 625.623 338.913 625.623C336.394 625.623 334.353 627.7 334.353 630.262C334.353 632.824 336.394 634.901 338.913 634.901Z" fill="black"/>
<path d="M338.913 709.98C341.431 709.98 343.473 707.903 343.473 705.341C343.473 702.779 341.431 700.702 338.913 700.702C336.394 700.702 334.353 702.779 334.353 705.341C334.353 707.903 336.394 709.98 338.913 709.98Z" fill="black"/>
<path d="M406.326 634.901C408.844 634.901 410.886 632.824 410.886 630.262C410.886 627.7 408.844 625.623 406.326 625.623C403.807 625.623 401.765 627.7 401.765 630.262C401.765 632.824 403.807 634.901 406.326 634.901Z" fill="black"/>
<path d="M406.326 709.98C408.844 709.98 410.886 707.903 410.886 705.341C410.886 702.779 408.844 700.702 406.326 700.702C403.807 700.702 401.765 702.779 401.765 705.341C401.765 707.903 403.807 709.98 406.326 709.98Z" fill="black"/>
<path d="M472.835 634.901C475.353 634.901 477.395 632.824 477.395 630.262C477.395 627.7 475.353 625.623 472.835 625.623C470.316 625.623 468.275 627.7 468.275 630.262C468.275 632.824 470.316 634.901 472.835 634.901Z" fill="black"/>
<path d="M472.835 709.98C475.353 709.98 477.395 707.903 477.395 705.341C477.395 702.779 475.353 700.702 472.835 700.702C470.316 700.702 468.275 702.779 468.275 705.341C468.275 707.903 470.316 709.98 472.835 709.98Z" fill="black"/>
<path d="M540.247 634.901C542.766 634.901 544.807 632.824 544.807 630.262C544.807 627.7 542.766 625.623 540.247 625.623C537.729 625.623 535.687 627.7 535.687 630.262C535.687 632.824 537.729 634.901 540.247 634.901Z" fill="black"/>
<path d="M540.247 709.98C542.766 709.98 544.807 707.903 544.807 705.341C544.807 702.779 542.766 700.702 540.247 700.702C537.729 700.702 535.687 702.779 535.687 705.341C535.687 707.903 537.729 709.98 540.247 709.98Z" fill="black"/>
<path d="M606.757 634.901C609.275 634.901 611.317 632.824 611.317 630.262C611.317 627.7 609.275 625.623 606.757 625.623C604.238 625.623 602.196 627.7 602.196 630.262C602.196 632.824 604.238 634.901 606.757 634.901Z" fill="black"/>
<path d="M606.757 709.98C609.275 709.98 611.317 707.903 611.317 705.341C611.317 702.779 609.275 700.702 606.757 700.702C604.238 700.702 602.196 702.779 602.196 705.341C602.196 707.903 604.238 709.98 606.757 709.98Z" fill="black"/>
<path d="M674.169 634.901C676.688 634.901 678.729 632.824 678.729 630.262C678.729 627.7 676.688 625.623 674.169 625.623C671.651 625.623 669.609 627.7 669.609 630.262C669.609 632.824 671.651 634.901 674.169 634.901Z" fill="black"/>
<path d="M674.169 709.98C676.688 709.98 678.729 707.903 678.729 705.341C678.729 702.779 676.688 700.702 674.169 700.702C671.651 700.702 669.609 702.779 669.609 705.341C669.609 707.903 671.651 709.98 674.169 709.98Z" fill="black"/>
<path d="M740.678 634.901C743.197 634.901 745.238 632.824 745.238 630.262C745.238 627.7 743.197 625.623 740.678 625.623C738.16 625.623 736.118 627.7 736.118 630.262C736.118 632.824 738.16 634.901 740.678 634.901Z" fill="black"/>
<path d="M740.678 709.98C743.197 709.98 745.238 707.903 745.238 705.341C745.238 702.779 743.197 700.702 740.678 700.702C738.16 700.702 736.118 702.779 736.118 705.341C736.118 707.903 738.16 709.98 740.678 709.98Z" fill="black"/>
<path d="M808.091 634.901C810.609 634.901 812.651 632.824 812.651 630.262C812.651 627.7 810.609 625.623 808.091 625.623C805.572 625.623 803.531 627.7 803.531 630.262C803.531 632.824 805.572 634.901 808.091 634.901Z" fill="black"/>
<path d="M808.091 709.98C810.609 709.98 812.651 707.903 812.651 705.341C812.651 702.779 810.609 700.702 808.091 700.702C805.572 700.702 803.531 702.779 803.531 705.341C803.531 707.903 805.572 709.98 808.091 709.98Z" fill="black"/>
<path d="M874.579 634.901C877.097 634.901 879.139 632.824 879.139 630.262C879.139 627.7 877.097 625.623 874.579 625.623C872.06 625.623 870.018 627.7 870.018 630.262C870.018 632.824 872.06 634.901 874.579 634.901Z" fill="black"/>
<path d="M874.579 709.98C877.097 709.98 879.139 707.903 879.139 705.341C879.139 702.779 877.097 700.702 874.579 700.702C872.06 700.702 870.018 702.779 870.018 705.341C870.018 707.903 872.06 709.98 874.579 709.98Z" fill="black"/>
<path d="M942.013 634.901C944.531 634.901 946.573 632.824 946.573 630.262C946.573 627.7 944.531 625.623 942.013 625.623C939.494 625.623 937.452 627.7 937.452 630.262C937.452 632.824 939.494 634.901 942.013 634.901Z" fill="black"/>
<path d="M942.013 709.98C944.531 709.98 946.573 707.903 946.573 705.341C946.573 702.779 944.531 700.702 942.013 700.702C939.494 700.702 937.452 702.779 937.452 705.341C937.452 707.903 939.494 709.98 942.013 709.98Z" fill="black"/>
<path d="M1008.5 634.901C1011.02 634.901 1013.06 632.824 1013.06 630.262C1013.06 627.7 1011.02 625.623 1008.5 625.623C1005.98 625.623 1003.94 627.7 1003.94 630.262C1003.94 632.824 1005.98 634.901 1008.5 634.901Z" fill="black"/>
<path d="M1008.5 709.98C1011.02 709.98 1013.06 707.903 1013.06 705.341C1013.06 702.779 1011.02 700.702 1008.5 700.702C1005.98 700.702 1003.94 702.779 1003.94 705.341C1003.94 707.903 1005.98 709.98 1008.5 709.98Z" fill="black"/>
<path d="M1075.91 634.901C1078.43 634.901 1080.47 632.824 1080.47 630.262C1080.47 627.7 1078.43 625.623 1075.91 625.623C1073.39 625.623 1071.35 627.7 1071.35 630.262C1071.35 632.824 1073.39 634.901 1075.91 634.901Z" fill="black"/>
<path d="M1075.91 709.98C1078.43 709.98 1080.47 707.903 1080.47 705.341C1080.47 702.779 1078.43 700.702 1075.91 700.702C1073.39 700.702 1071.35 702.779 1071.35 705.341C1071.35 707.903 1073.39 709.98 1075.91 709.98Z" fill="black"/>
<path d="M1142.42 634.901C1144.94 634.901 1146.98 632.824 1146.98 630.262C1146.98 627.7 1144.94 625.623 1142.42 625.623C1139.9 625.623 1137.86 627.7 1137.86 630.262C1137.86 632.824 1139.9 634.901 1142.42 634.901Z" fill="black"/>
<path d="M1142.42 709.98C1144.94 709.98 1146.98 707.903 1146.98 705.341C1146.98 702.779 1144.94 700.702 1142.42 700.702C1139.9 700.702 1137.86 702.779 1137.86 705.341C1137.86 707.903 1139.9 709.98 1142.42 709.98Z" fill="black"/>
<path d="M1209.83 634.901C1212.35 634.901 1214.39 632.824 1214.39 630.262C1214.39 627.7 1212.35 625.623 1209.83 625.623C1207.32 625.623 1205.27 627.7 1205.27 630.262C1205.27 632.824 1207.32 634.901 1209.83 634.901Z" fill="black"/>
<path d="M1209.83 709.98C1212.35 709.98 1214.39 707.903 1214.39 705.341C1214.39 702.779 1212.35 700.702 1209.83 700.702C1207.32 700.702 1205.27 702.779 1205.27 705.341C1205.27 707.903 1207.32 709.98 1209.83 709.98Z" fill="black"/>
<path d="M1276.34 634.901C1278.86 634.901 1280.9 632.824 1280.9 630.262C1280.9 627.7 1278.86 625.623 1276.34 625.623C1273.83 625.623 1271.78 627.7 1271.78 630.262C1271.78 632.824 1273.83 634.901 1276.34 634.901Z" fill="black"/>
<path d="M1276.34 709.98C1278.86 709.98 1280.9 707.903 1280.9 705.341C1280.9 702.779 1278.86 700.702 1276.34 700.702C1273.83 700.702 1271.78 702.779 1271.78 705.341C1271.78 707.903 1273.83 709.98 1276.34 709.98Z" fill="black"/>
<path d="M1343.76 634.901C1346.27 634.901 1348.32 632.824 1348.32 630.262C1348.32 627.7 1346.27 625.623 1343.76 625.623C1341.24 625.623 1339.2 627.7 1339.2 630.262C1339.2 632.824 1341.24 634.901 1343.76 634.901Z" fill="black"/>
<path d="M1343.76 709.98C1346.27 709.98 1348.32 707.903 1348.32 705.341C1348.32 702.779 1346.27 700.702 1343.76 700.702C1341.24 700.702 1339.2 702.779 1339.2 705.341C1339.2 707.903 1341.24 709.98 1343.76 709.98Z" fill="black"/>
<path d="M1410.27 634.901C1412.78 634.901 1414.83 632.824 1414.83 630.262C1414.83 627.7 1412.78 625.623 1410.27 625.623C1407.75 625.623 1405.71 627.7 1405.71 630.262C1405.71 632.824 1407.75 634.901 1410.27 634.901Z" fill="black"/>
<path d="M1410.27 709.98C1412.78 709.98 1414.83 707.903 1414.83 705.341C1414.83 702.779 1412.78 700.702 1410.27 700.702C1407.75 700.702 1405.71 702.779 1405.71 705.341C1405.71 707.903 1407.75 709.98 1410.27 709.98Z" fill="black"/>
<path d="M1477.68 634.901C1480.2 634.901 1482.24 632.824 1482.24 630.262C1482.24 627.7 1480.2 625.623 1477.68 625.623C1475.16 625.623 1473.12 627.7 1473.12 630.262C1473.12 632.824 1475.16 634.901 1477.68 634.901Z" fill="black"/>
<path d="M1477.68 709.98C1480.2 709.98 1482.24 707.903 1482.24 705.341C1482.24 702.779 1480.2 700.702 1477.68 700.702C1475.16 700.702 1473.12 702.779 1473.12 705.341C1473.12 707.903 1475.16 709.98 1477.68 709.98Z" fill="black"/>
<path d="M1544.19 634.901C1546.71 634.901 1548.75 632.824 1548.75 630.262C1548.75 627.7 1546.71 625.623 1544.19 625.623C1541.67 625.623 1539.63 627.7 1539.63 630.262C1539.63 632.824 1541.67 634.901 1544.19 634.901Z" fill="black"/>
<path d="M1544.19 709.98C1546.71 709.98 1548.75 707.903 1548.75 705.341C1548.75 702.779 1546.71 700.702 1544.19 700.702C1541.67 700.702 1539.63 702.779 1539.63 705.341C1539.63 707.903 1541.67 709.98 1544.19 709.98Z" fill="black"/>
<path d="M1611.6 634.901C1614.12 634.901 1616.16 632.824 1616.16 630.262C1616.16 627.7 1614.12 625.623 1611.6 625.623C1609.08 625.623 1607.04 627.7 1607.04 630.262C1607.04 632.824 1609.08 634.901 1611.6 634.901Z" fill="black"/>
<path d="M1611.6 709.98C1614.12 709.98 1616.16 707.903 1616.16 705.341C1616.16 702.779 1614.12 700.702 1611.6 700.702C1609.08 700.702 1607.04 702.779 1607.04 705.341C1607.04 707.903 1609.08 709.98 1611.6 709.98Z" fill="black"/>
<path d="M1678.11 634.901C1680.63 634.901 1682.67 632.824 1682.67 630.262C1682.67 627.7 1680.63 625.623 1678.11 625.623C1675.59 625.623 1673.55 627.7 1673.55 630.262C1673.55 632.824 1675.59 634.901 1678.11 634.901Z" fill="black"/>
<path d="M1678.11 709.98C1680.63 709.98 1682.67 707.903 1682.67 705.341C1682.67 702.779 1680.63 700.702 1678.11 700.702C1675.59 700.702 1673.55 702.779 1673.55 705.341C1673.55 707.903 1675.59 709.98 1678.11 709.98Z" fill="black"/>
<path d="M1745.52 634.901C1748.04 634.901 1750.08 632.824 1750.08 630.262C1750.08 627.7 1748.04 625.623 1745.52 625.623C1743 625.623 1740.96 627.7 1740.96 630.262C1740.96 632.824 1743 634.901 1745.52 634.901Z" fill="black"/>
<path d="M1745.52 709.98C1748.04 709.98 1750.08 707.903 1750.08 705.341C1750.08 702.779 1748.04 700.702 1745.52 700.702C1743 700.702 1740.96 702.779 1740.96 705.341C1740.96 707.903 1743 709.98 1745.52 709.98Z" fill="black"/>
<path d="M1812.01 634.901C1814.53 634.901 1816.57 632.824 1816.57 630.262C1816.57 627.7 1814.53 625.623 1812.01 625.623C1809.49 625.623 1807.45 627.7 1807.45 630.262C1807.45 632.824 1809.49 634.901 1812.01 634.901Z" fill="black"/>
<path d="M1812.01 709.98C1814.53 709.98 1816.57 707.903 1816.57 705.341C1816.57 702.779 1814.53 700.702 1812.01 700.702C1809.49 700.702 1807.45 702.779 1807.45 705.341C1807.45 707.903 1809.49 709.98 1812.01 709.98Z" fill="black"/>
<path d="M4.56013 791.318C7.07863 791.318 9.12027 789.241 9.12027 786.679C9.12027 784.116 7.07863 782.039 4.56013 782.039C2.04164 782.039 0 784.116 0 786.679C0 789.241 2.04164 791.318 4.56013 791.318Z" fill="black"/>
<path d="M4.56013 866.375C7.07863 866.375 9.12027 864.298 9.12027 861.736C9.12027 859.174 7.07863 857.097 4.56013 857.097C2.04164 857.097 0 859.174 0 861.736C0 864.298 2.04164 866.375 4.56013 866.375Z" fill="black"/>
<path d="M71.0694 791.318C73.5879 791.318 75.6296 789.241 75.6296 786.679C75.6296 784.116 73.5879 782.039 71.0694 782.039C68.5509 782.039 66.5093 784.116 66.5093 786.679C66.5093 789.241 68.5509 791.318 71.0694 791.318Z" fill="black"/>
<path d="M71.0694 866.375C73.5879 866.375 75.6296 864.298 75.6296 861.736C75.6296 859.174 73.5879 857.097 71.0694 857.097C68.5509 857.097 66.5093 859.174 66.5093 861.736C66.5093 864.298 68.5509 866.375 71.0694 866.375Z" fill="black"/>
<path d="M138.482 791.318C141 791.318 143.042 789.241 143.042 786.679C143.042 784.116 141 782.039 138.482 782.039C135.963 782.039 133.922 784.116 133.922 786.679C133.922 789.241 135.963 791.318 138.482 791.318Z" fill="black"/>
<path d="M138.482 866.375C141 866.375 143.042 864.298 143.042 861.736C143.042 859.174 141 857.097 138.482 857.097C135.963 857.097 133.922 859.174 133.922 861.736C133.922 864.298 135.963 866.375 138.482 866.375Z" fill="black"/>
<path d="M204.991 791.318C207.51 791.318 209.551 789.241 209.551 786.679C209.551 784.116 207.51 782.039 204.991 782.039C202.473 782.039 200.431 784.116 200.431 786.679C200.431 789.241 202.473 791.318 204.991 791.318Z" fill="black"/>
<path d="M204.991 866.375C207.51 866.375 209.551 864.298 209.551 861.736C209.551 859.174 207.51 857.097 204.991 857.097C202.473 857.097 200.431 859.174 200.431 861.736C200.431 864.298 202.473 866.375 204.991 866.375Z" fill="black"/>
<path d="M272.404 791.318C274.922 791.318 276.964 789.241 276.964 786.679C276.964 784.116 274.922 782.039 272.404 782.039C269.885 782.039 267.844 784.116 267.844 786.679C267.844 789.241 269.885 791.318 272.404 791.318Z" fill="black"/>
<path d="M272.404 866.375C274.922 866.375 276.964 864.298 276.964 861.736C276.964 859.174 274.922 857.097 272.404 857.097C269.885 857.097 267.844 859.174 267.844 861.736C267.844 864.298 269.885 866.375 272.404 866.375Z" fill="black"/>
<path d="M338.913 791.318C341.431 791.318 343.473 789.241 343.473 786.679C343.473 784.116 341.431 782.039 338.913 782.039C336.394 782.039 334.353 784.116 334.353 786.679C334.353 789.241 336.394 791.318 338.913 791.318Z" fill="black"/>
<path d="M338.913 866.375C341.431 866.375 343.473 864.298 343.473 861.736C343.473 859.174 341.431 857.097 338.913 857.097C336.394 857.097 334.353 859.174 334.353 861.736C334.353 864.298 336.394 866.375 338.913 866.375Z" fill="black"/>
<path d="M406.326 791.318C408.844 791.318 410.886 789.241 410.886 786.679C410.886 784.116 408.844 782.039 406.326 782.039C403.807 782.039 401.765 784.116 401.765 786.679C401.765 789.241 403.807 791.318 406.326 791.318Z" fill="black"/>
<path d="M406.326 866.375C408.844 866.375 410.886 864.298 410.886 861.736C410.886 859.174 408.844 857.097 406.326 857.097C403.807 857.097 401.765 859.174 401.765 861.736C401.765 864.298 403.807 866.375 406.326 866.375Z" fill="black"/>
<path d="M472.835 791.318C475.353 791.318 477.395 789.241 477.395 786.679C477.395 784.116 475.353 782.039 472.835 782.039C470.316 782.039 468.275 784.116 468.275 786.679C468.275 789.241 470.316 791.318 472.835 791.318Z" fill="black"/>
<path d="M472.835 866.375C475.353 866.375 477.395 864.298 477.395 861.736C477.395 859.174 475.353 857.097 472.835 857.097C470.316 857.097 468.275 859.174 468.275 861.736C468.275 864.298 470.316 866.375 472.835 866.375Z" fill="black"/>
<path d="M540.247 791.318C542.766 791.318 544.807 789.241 544.807 786.679C544.807 784.116 542.766 782.039 540.247 782.039C537.729 782.039 535.687 784.116 535.687 786.679C535.687 789.241 537.729 791.318 540.247 791.318Z" fill="black"/>
<path d="M540.247 866.375C542.766 866.375 544.807 864.298 544.807 861.736C544.807 859.174 542.766 857.097 540.247 857.097C537.729 857.097 535.687 859.174 535.687 861.736C535.687 864.298 537.729 866.375 540.247 866.375Z" fill="black"/>
<path d="M606.757 791.318C609.275 791.318 611.317 789.241 611.317 786.679C611.317 784.116 609.275 782.039 606.757 782.039C604.238 782.039 602.196 784.116 602.196 786.679C602.196 789.241 604.238 791.318 606.757 791.318Z" fill="black"/>
<path d="M606.757 866.375C609.275 866.375 611.317 864.298 611.317 861.736C611.317 859.174 609.275 857.097 606.757 857.097C604.238 857.097 602.196 859.174 602.196 861.736C602.196 864.298 604.238 866.375 606.757 866.375Z" fill="black"/>
<path d="M674.169 791.318C676.688 791.318 678.729 789.241 678.729 786.679C678.729 784.116 676.688 782.039 674.169 782.039C671.651 782.039 669.609 784.116 669.609 786.679C669.609 789.241 671.651 791.318 674.169 791.318Z" fill="black"/>
<path d="M674.169 866.375C676.688 866.375 678.729 864.298 678.729 861.736C678.729 859.174 676.688 857.097 674.169 857.097C671.651 857.097 669.609 859.174 669.609 861.736C669.609 864.298 671.651 866.375 674.169 866.375Z" fill="black"/>
<path d="M740.678 791.318C743.197 791.318 745.238 789.241 745.238 786.679C745.238 784.116 743.197 782.039 740.678 782.039C738.16 782.039 736.118 784.116 736.118 786.679C736.118 789.241 738.16 791.318 740.678 791.318Z" fill="black"/>
<path d="M740.678 866.375C743.197 866.375 745.238 864.298 745.238 861.736C745.238 859.174 743.197 857.097 740.678 857.097C738.16 857.097 736.118 859.174 736.118 861.736C736.118 864.298 738.16 866.375 740.678 866.375Z" fill="black"/>
<path d="M808.091 791.318C810.609 791.318 812.651 789.241 812.651 786.679C812.651 784.116 810.609 782.039 808.091 782.039C805.572 782.039 803.531 784.116 803.531 786.679C803.531 789.241 805.572 791.318 808.091 791.318Z" fill="black"/>
<path d="M808.091 866.375C810.609 866.375 812.651 864.298 812.651 861.736C812.651 859.174 810.609 857.097 808.091 857.097C805.572 857.097 803.531 859.174 803.531 861.736C803.531 864.298 805.572 866.375 808.091 866.375Z" fill="black"/>
<path d="M874.579 791.318C877.097 791.318 879.139 789.241 879.139 786.679C879.139 784.116 877.097 782.039 874.579 782.039C872.06 782.039 870.018 784.116 870.018 786.679C870.018 789.241 872.06 791.318 874.579 791.318Z" fill="black"/>
<path d="M874.579 866.375C877.097 866.375 879.139 864.298 879.139 861.736C879.139 859.174 877.097 857.097 874.579 857.097C872.06 857.097 870.018 859.174 870.018 861.736C870.018 864.298 872.06 866.375 874.579 866.375Z" fill="black"/>
<path d="M942.013 791.318C944.531 791.318 946.573 789.241 946.573 786.679C946.573 784.116 944.531 782.039 942.013 782.039C939.494 782.039 937.452 784.116 937.452 786.679C937.452 789.241 939.494 791.318 942.013 791.318Z" fill="black"/>
<path d="M942.013 866.375C944.531 866.375 946.573 864.298 946.573 861.736C946.573 859.174 944.531 857.097 942.013 857.097C939.494 857.097 937.452 859.174 937.452 861.736C937.452 864.298 939.494 866.375 942.013 866.375Z" fill="black"/>
<path d="M1008.5 791.318C1011.02 791.318 1013.06 789.241 1013.06 786.679C1013.06 784.116 1011.02 782.039 1008.5 782.039C1005.98 782.039 1003.94 784.116 1003.94 786.679C1003.94 789.241 1005.98 791.318 1008.5 791.318Z" fill="black"/>
<path d="M1008.5 866.375C1011.02 866.375 1013.06 864.298 1013.06 861.736C1013.06 859.174 1011.02 857.097 1008.5 857.097C1005.98 857.097 1003.94 859.174 1003.94 861.736C1003.94 864.298 1005.98 866.375 1008.5 866.375Z" fill="black"/>
<path d="M1075.91 791.318C1078.43 791.318 1080.47 789.241 1080.47 786.679C1080.47 784.116 1078.43 782.039 1075.91 782.039C1073.39 782.039 1071.35 784.116 1071.35 786.679C1071.35 789.241 1073.39 791.318 1075.91 791.318Z" fill="black"/>
<path d="M1075.91 866.375C1078.43 866.375 1080.47 864.298 1080.47 861.736C1080.47 859.174 1078.43 857.097 1075.91 857.097C1073.39 857.097 1071.35 859.174 1071.35 861.736C1071.35 864.298 1073.39 866.375 1075.91 866.375Z" fill="black"/>
<path d="M1142.42 791.318C1144.94 791.318 1146.98 789.241 1146.98 786.679C1146.98 784.116 1144.94 782.039 1142.42 782.039C1139.9 782.039 1137.86 784.116 1137.86 786.679C1137.86 789.241 1139.9 791.318 1142.42 791.318Z" fill="black"/>
<path d="M1142.42 866.375C1144.94 866.375 1146.98 864.298 1146.98 861.736C1146.98 859.174 1144.94 857.097 1142.42 857.097C1139.9 857.097 1137.86 859.174 1137.86 861.736C1137.86 864.298 1139.9 866.375 1142.42 866.375Z" fill="black"/>
<path d="M1209.83 791.318C1212.35 791.318 1214.39 789.241 1214.39 786.679C1214.39 784.116 1212.35 782.039 1209.83 782.039C1207.32 782.039 1205.27 784.116 1205.27 786.679C1205.27 789.241 1207.32 791.318 1209.83 791.318Z" fill="black"/>
<path d="M1209.83 866.375C1212.35 866.375 1214.39 864.298 1214.39 861.736C1214.39 859.174 1212.35 857.097 1209.83 857.097C1207.32 857.097 1205.27 859.174 1205.27 861.736C1205.27 864.298 1207.32 866.375 1209.83 866.375Z" fill="black"/>
<path d="M1276.34 791.318C1278.86 791.318 1280.9 789.241 1280.9 786.679C1280.9 784.116 1278.86 782.039 1276.34 782.039C1273.83 782.039 1271.78 784.116 1271.78 786.679C1271.78 789.241 1273.83 791.318 1276.34 791.318Z" fill="black"/>
<path d="M1276.34 866.375C1278.86 866.375 1280.9 864.298 1280.9 861.736C1280.9 859.174 1278.86 857.097 1276.34 857.097C1273.83 857.097 1271.78 859.174 1271.78 861.736C1271.78 864.298 1273.83 866.375 1276.34 866.375Z" fill="black"/>
<path d="M1343.76 791.318C1346.27 791.318 1348.32 789.241 1348.32 786.679C1348.32 784.116 1346.27 782.039 1343.76 782.039C1341.24 782.039 1339.2 784.116 1339.2 786.679C1339.2 789.241 1341.24 791.318 1343.76 791.318Z" fill="black"/>
<path d="M1343.76 866.375C1346.27 866.375 1348.32 864.298 1348.32 861.736C1348.32 859.174 1346.27 857.097 1343.76 857.097C1341.24 857.097 1339.2 859.174 1339.2 861.736C1339.2 864.298 1341.24 866.375 1343.76 866.375Z" fill="black"/>
<path d="M1410.27 791.318C1412.78 791.318 1414.83 789.241 1414.83 786.679C1414.83 784.116 1412.78 782.039 1410.27 782.039C1407.75 782.039 1405.71 784.116 1405.71 786.679C1405.71 789.241 1407.75 791.318 1410.27 791.318Z" fill="black"/>
<path d="M1410.27 866.375C1412.78 866.375 1414.83 864.298 1414.83 861.736C1414.83 859.174 1412.78 857.097 1410.27 857.097C1407.75 857.097 1405.71 859.174 1405.71 861.736C1405.71 864.298 1407.75 866.375 1410.27 866.375Z" fill="black"/>
<path d="M1477.68 791.318C1480.2 791.318 1482.24 789.241 1482.24 786.679C1482.24 784.116 1480.2 782.039 1477.68 782.039C1475.16 782.039 1473.12 784.116 1473.12 786.679C1473.12 789.241 1475.16 791.318 1477.68 791.318Z" fill="black"/>
<path d="M1477.68 866.375C1480.2 866.375 1482.24 864.298 1482.24 861.736C1482.24 859.174 1480.2 857.097 1477.68 857.097C1475.16 857.097 1473.12 859.174 1473.12 861.736C1473.12 864.298 1475.16 866.375 1477.68 866.375Z" fill="black"/>
<path d="M1544.19 791.318C1546.71 791.318 1548.75 789.241 1548.75 786.679C1548.75 784.116 1546.71 782.039 1544.19 782.039C1541.67 782.039 1539.63 784.116 1539.63 786.679C1539.63 789.241 1541.67 791.318 1544.19 791.318Z" fill="black"/>
<path d="M1544.19 866.375C1546.71 866.375 1548.75 864.298 1548.75 861.736C1548.75 859.174 1546.71 857.097 1544.19 857.097C1541.67 857.097 1539.63 859.174 1539.63 861.736C1539.63 864.298 1541.67 866.375 1544.19 866.375Z" fill="black"/>
<path d="M1611.6 791.318C1614.12 791.318 1616.16 789.241 1616.16 786.679C1616.16 784.116 1614.12 782.039 1611.6 782.039C1609.08 782.039 1607.04 784.116 1607.04 786.679C1607.04 789.241 1609.08 791.318 1611.6 791.318Z" fill="black"/>
<path d="M1611.6 866.375C1614.12 866.375 1616.16 864.298 1616.16 861.736C1616.16 859.174 1614.12 857.097 1611.6 857.097C1609.08 857.097 1607.04 859.174 1607.04 861.736C1607.04 864.298 1609.08 866.375 1611.6 866.375Z" fill="black"/>
<path d="M1678.11 791.318C1680.63 791.318 1682.67 789.241 1682.67 786.679C1682.67 784.116 1680.63 782.039 1678.11 782.039C1675.59 782.039 1673.55 784.116 1673.55 786.679C1673.55 789.241 1675.59 791.318 1678.11 791.318Z" fill="black"/>
<path d="M1678.11 866.375C1680.63 866.375 1682.67 864.298 1682.67 861.736C1682.67 859.174 1680.63 857.097 1678.11 857.097C1675.59 857.097 1673.55 859.174 1673.55 861.736C1673.55 864.298 1675.59 866.375 1678.11 866.375Z" fill="black"/>
<path d="M1745.52 791.318C1748.04 791.318 1750.08 789.241 1750.08 786.679C1750.08 784.116 1748.04 782.039 1745.52 782.039C1743 782.039 1740.96 784.116 1740.96 786.679C1740.96 789.241 1743 791.318 1745.52 791.318Z" fill="black"/>
<path d="M1745.52 866.375C1748.04 866.375 1750.08 864.298 1750.08 861.736C1750.08 859.174 1748.04 857.097 1745.52 857.097C1743 857.097 1740.96 859.174 1740.96 861.736C1740.96 864.298 1743 866.375 1745.52 866.375Z" fill="black"/>
<path d="M1812.01 791.318C1814.53 791.318 1816.57 789.241 1816.57 786.679C1816.57 784.116 1814.53 782.039 1812.01 782.039C1809.49 782.039 1807.45 784.116 1807.45 786.679C1807.45 789.241 1809.49 791.318 1812.01 791.318Z" fill="black"/>
<path d="M1812.01 866.375C1814.53 866.375 1816.57 864.298 1816.57 861.736C1816.57 859.174 1814.53 857.097 1812.01 857.097C1809.49 857.097 1807.45 859.174 1807.45 861.736C1807.45 864.298 1809.49 866.375 1812.01 866.375Z" fill="black"/>
<path d="M4.56013 947.713C7.07863 947.713 9.12027 945.636 9.12027 943.074C9.12027 940.512 7.07863 938.435 4.56013 938.435C2.04164 938.435 0 940.512 0 943.074C0 945.636 2.04164 947.713 4.56013 947.713Z" fill="black"/>
<path d="M4.56013 1022.79C7.07863 1022.79 9.12027 1020.72 9.12027 1018.15C9.12027 1015.59 7.07863 1013.52 4.56013 1013.52C2.04164 1013.52 0 1015.59 0 1018.15C0 1020.72 2.04164 1022.79 4.56013 1022.79Z" fill="black"/>
<path d="M71.0694 947.713C73.5879 947.713 75.6296 945.636 75.6296 943.074C75.6296 940.512 73.5879 938.435 71.0694 938.435C68.5509 938.435 66.5093 940.512 66.5093 943.074C66.5093 945.636 68.5509 947.713 71.0694 947.713Z" fill="black"/>
<path d="M71.0694 1022.79C73.5879 1022.79 75.6296 1020.72 75.6296 1018.15C75.6296 1015.59 73.5879 1013.52 71.0694 1013.52C68.5509 1013.52 66.5093 1015.59 66.5093 1018.15C66.5093 1020.72 68.5509 1022.79 71.0694 1022.79Z" fill="black"/>
<path d="M138.482 947.713C141 947.713 143.042 945.636 143.042 943.074C143.042 940.512 141 938.435 138.482 938.435C135.963 938.435 133.922 940.512 133.922 943.074C133.922 945.636 135.963 947.713 138.482 947.713Z" fill="black"/>
<path d="M138.482 1022.79C141 1022.79 143.042 1020.72 143.042 1018.15C143.042 1015.59 141 1013.52 138.482 1013.52C135.963 1013.52 133.922 1015.59 133.922 1018.15C133.922 1020.72 135.963 1022.79 138.482 1022.79Z" fill="black"/>
<path d="M204.991 947.713C207.51 947.713 209.551 945.636 209.551 943.074C209.551 940.512 207.51 938.435 204.991 938.435C202.473 938.435 200.431 940.512 200.431 943.074C200.431 945.636 202.473 947.713 204.991 947.713Z" fill="black"/>
<path d="M204.991 1022.79C207.51 1022.79 209.551 1020.72 209.551 1018.15C209.551 1015.59 207.51 1013.52 204.991 1013.52C202.473 1013.52 200.431 1015.59 200.431 1018.15C200.431 1020.72 202.473 1022.79 204.991 1022.79Z" fill="black"/>
<path d="M272.404 947.713C274.922 947.713 276.964 945.636 276.964 943.074C276.964 940.512 274.922 938.435 272.404 938.435C269.885 938.435 267.844 940.512 267.844 943.074C267.844 945.636 269.885 947.713 272.404 947.713Z" fill="black"/>
<path d="M272.404 1022.79C274.922 1022.79 276.964 1020.72 276.964 1018.15C276.964 1015.59 274.922 1013.52 272.404 1013.52C269.885 1013.52 267.844 1015.59 267.844 1018.15C267.844 1020.72 269.885 1022.79 272.404 1022.79Z" fill="black"/>
<path d="M338.913 947.713C341.431 947.713 343.473 945.636 343.473 943.074C343.473 940.512 341.431 938.435 338.913 938.435C336.394 938.435 334.353 940.512 334.353 943.074C334.353 945.636 336.394 947.713 338.913 947.713Z" fill="black"/>
<path d="M338.913 1022.79C341.431 1022.79 343.473 1020.72 343.473 1018.15C343.473 1015.59 341.431 1013.52 338.913 1013.52C336.394 1013.52 334.353 1015.59 334.353 1018.15C334.353 1020.72 336.394 1022.79 338.913 1022.79Z" fill="black"/>
<path d="M406.326 947.713C408.844 947.713 410.886 945.636 410.886 943.074C410.886 940.512 408.844 938.435 406.326 938.435C403.807 938.435 401.765 940.512 401.765 943.074C401.765 945.636 403.807 947.713 406.326 947.713Z" fill="black"/>
<path d="M406.326 1022.79C408.844 1022.79 410.886 1020.72 410.886 1018.15C410.886 1015.59 408.844 1013.52 406.326 1013.52C403.807 1013.52 401.765 1015.59 401.765 1018.15C401.765 1020.72 403.807 1022.79 406.326 1022.79Z" fill="black"/>
<path d="M472.835 947.713C475.353 947.713 477.395 945.636 477.395 943.074C477.395 940.512 475.353 938.435 472.835 938.435C470.316 938.435 468.275 940.512 468.275 943.074C468.275 945.636 470.316 947.713 472.835 947.713Z" fill="black"/>
<path d="M472.835 1022.79C475.353 1022.79 477.395 1020.72 477.395 1018.15C477.395 1015.59 475.353 1013.52 472.835 1013.52C470.316 1013.52 468.275 1015.59 468.275 1018.15C468.275 1020.72 470.316 1022.79 472.835 1022.79Z" fill="black"/>
<path d="M540.247 947.713C542.766 947.713 544.807 945.636 544.807 943.074C544.807 940.512 542.766 938.435 540.247 938.435C537.729 938.435 535.687 940.512 535.687 943.074C535.687 945.636 537.729 947.713 540.247 947.713Z" fill="black"/>
<path d="M540.247 1022.79C542.766 1022.79 544.807 1020.72 544.807 1018.15C544.807 1015.59 542.766 1013.52 540.247 1013.52C537.729 1013.52 535.687 1015.59 535.687 1018.15C535.687 1020.72 537.729 1022.79 540.247 1022.79Z" fill="black"/>
<path d="M606.757 947.713C609.275 947.713 611.317 945.636 611.317 943.074C611.317 940.512 609.275 938.435 606.757 938.435C604.238 938.435 602.196 940.512 602.196 943.074C602.196 945.636 604.238 947.713 606.757 947.713Z" fill="black"/>
<path d="M606.757 1022.79C609.275 1022.79 611.317 1020.72 611.317 1018.15C611.317 1015.59 609.275 1013.52 606.757 1013.52C604.238 1013.52 602.196 1015.59 602.196 1018.15C602.196 1020.72 604.238 1022.79 606.757 1022.79Z" fill="black"/>
<path d="M674.169 947.713C676.688 947.713 678.729 945.636 678.729 943.074C678.729 940.512 676.688 938.435 674.169 938.435C671.651 938.435 669.609 940.512 669.609 943.074C669.609 945.636 671.651 947.713 674.169 947.713Z" fill="black"/>
<path d="M674.169 1022.79C676.688 1022.79 678.729 1020.72 678.729 1018.15C678.729 1015.59 676.688 1013.52 674.169 1013.52C671.651 1013.52 669.609 1015.59 669.609 1018.15C669.609 1020.72 671.651 1022.79 674.169 1022.79Z" fill="black"/>
<path d="M740.678 947.713C743.197 947.713 745.238 945.636 745.238 943.074C745.238 940.512 743.197 938.435 740.678 938.435C738.16 938.435 736.118 940.512 736.118 943.074C736.118 945.636 738.16 947.713 740.678 947.713Z" fill="black"/>
<path d="M740.678 1022.79C743.197 1022.79 745.238 1020.72 745.238 1018.15C745.238 1015.59 743.197 1013.52 740.678 1013.52C738.16 1013.52 736.118 1015.59 736.118 1018.15C736.118 1020.72 738.16 1022.79 740.678 1022.79Z" fill="black"/>
<path d="M808.091 947.713C810.609 947.713 812.651 945.636 812.651 943.074C812.651 940.512 810.609 938.435 808.091 938.435C805.572 938.435 803.531 940.512 803.531 943.074C803.531 945.636 805.572 947.713 808.091 947.713Z" fill="black"/>
<path d="M808.091 1022.79C810.609 1022.79 812.651 1020.72 812.651 1018.15C812.651 1015.59 810.609 1013.52 808.091 1013.52C805.572 1013.52 803.531 1015.59 803.531 1018.15C803.531 1020.72 805.572 1022.79 808.091 1022.79Z" fill="black"/>
<path d="M874.579 947.713C877.097 947.713 879.139 945.636 879.139 943.074C879.139 940.512 877.097 938.435 874.579 938.435C872.06 938.435 870.018 940.512 870.018 943.074C870.018 945.636 872.06 947.713 874.579 947.713Z" fill="black"/>
<path d="M874.579 1022.79C877.097 1022.79 879.139 1020.72 879.139 1018.15C879.139 1015.59 877.097 1013.52 874.579 1013.52C872.06 1013.52 870.018 1015.59 870.018 1018.15C870.018 1020.72 872.06 1022.79 874.579 1022.79Z" fill="black"/>
<path d="M942.013 947.713C944.531 947.713 946.573 945.636 946.573 943.074C946.573 940.512 944.531 938.435 942.013 938.435C939.494 938.435 937.452 940.512 937.452 943.074C937.452 945.636 939.494 947.713 942.013 947.713Z" fill="black"/>
<path d="M942.013 1022.79C944.531 1022.79 946.573 1020.72 946.573 1018.15C946.573 1015.59 944.531 1013.52 942.013 1013.52C939.494 1013.52 937.452 1015.59 937.452 1018.15C937.452 1020.72 939.494 1022.79 942.013 1022.79Z" fill="black"/>
<path d="M1008.5 947.713C1011.02 947.713 1013.06 945.636 1013.06 943.074C1013.06 940.512 1011.02 938.435 1008.5 938.435C1005.98 938.435 1003.94 940.512 1003.94 943.074C1003.94 945.636 1005.98 947.713 1008.5 947.713Z" fill="black"/>
<path d="M1008.5 1022.79C1011.02 1022.79 1013.06 1020.72 1013.06 1018.15C1013.06 1015.59 1011.02 1013.52 1008.5 1013.52C1005.98 1013.52 1003.94 1015.59 1003.94 1018.15C1003.94 1020.72 1005.98 1022.79 1008.5 1022.79Z" fill="black"/>
<path d="M1075.91 947.713C1078.43 947.713 1080.47 945.636 1080.47 943.074C1080.47 940.512 1078.43 938.435 1075.91 938.435C1073.39 938.435 1071.35 940.512 1071.35 943.074C1071.35 945.636 1073.39 947.713 1075.91 947.713Z" fill="black"/>
<path d="M1075.91 1022.79C1078.43 1022.79 1080.47 1020.72 1080.47 1018.15C1080.47 1015.59 1078.43 1013.52 1075.91 1013.52C1073.39 1013.52 1071.35 1015.59 1071.35 1018.15C1071.35 1020.72 1073.39 1022.79 1075.91 1022.79Z" fill="black"/>
<path d="M1142.42 947.713C1144.94 947.713 1146.98 945.636 1146.98 943.074C1146.98 940.512 1144.94 938.435 1142.42 938.435C1139.9 938.435 1137.86 940.512 1137.86 943.074C1137.86 945.636 1139.9 947.713 1142.42 947.713Z" fill="black"/>
<path d="M1142.42 1022.79C1144.94 1022.79 1146.98 1020.72 1146.98 1018.15C1146.98 1015.59 1144.94 1013.52 1142.42 1013.52C1139.9 1013.52 1137.86 1015.59 1137.86 1018.15C1137.86 1020.72 1139.9 1022.79 1142.42 1022.79Z" fill="black"/>
<path d="M1209.83 947.713C1212.35 947.713 1214.39 945.636 1214.39 943.074C1214.39 940.512 1212.35 938.435 1209.83 938.435C1207.32 938.435 1205.27 940.512 1205.27 943.074C1205.27 945.636 1207.32 947.713 1209.83 947.713Z" fill="black"/>
<path d="M1209.83 1022.79C1212.35 1022.79 1214.39 1020.72 1214.39 1018.15C1214.39 1015.59 1212.35 1013.52 1209.83 1013.52C1207.32 1013.52 1205.27 1015.59 1205.27 1018.15C1205.27 1020.72 1207.32 1022.79 1209.83 1022.79Z" fill="black"/>
<path d="M1276.34 947.713C1278.86 947.713 1280.9 945.636 1280.9 943.074C1280.9 940.512 1278.86 938.435 1276.34 938.435C1273.83 938.435 1271.78 940.512 1271.78 943.074C1271.78 945.636 1273.83 947.713 1276.34 947.713Z" fill="black"/>
<path d="M1276.34 1022.79C1278.86 1022.79 1280.9 1020.72 1280.9 1018.15C1280.9 1015.59 1278.86 1013.52 1276.34 1013.52C1273.83 1013.52 1271.78 1015.59 1271.78 1018.15C1271.78 1020.72 1273.83 1022.79 1276.34 1022.79Z" fill="black"/>
<path d="M1343.76 947.713C1346.27 947.713 1348.32 945.636 1348.32 943.074C1348.32 940.512 1346.27 938.435 1343.76 938.435C1341.24 938.435 1339.2 940.512 1339.2 943.074C1339.2 945.636 1341.24 947.713 1343.76 947.713Z" fill="black"/>
<path d="M1343.76 1022.79C1346.27 1022.79 1348.32 1020.72 1348.32 1018.15C1348.32 1015.59 1346.27 1013.52 1343.76 1013.52C1341.24 1013.52 1339.2 1015.59 1339.2 1018.15C1339.2 1020.72 1341.24 1022.79 1343.76 1022.79Z" fill="black"/>
<path d="M1410.27 947.713C1412.78 947.713 1414.83 945.636 1414.83 943.074C1414.83 940.512 1412.78 938.435 1410.27 938.435C1407.75 938.435 1405.71 940.512 1405.71 943.074C1405.71 945.636 1407.75 947.713 1410.27 947.713Z" fill="black"/>
<path d="M1410.27 1022.79C1412.78 1022.79 1414.83 1020.72 1414.83 1018.15C1414.83 1015.59 1412.78 1013.52 1410.27 1013.52C1407.75 1013.52 1405.71 1015.59 1405.71 1018.15C1405.71 1020.72 1407.75 1022.79 1410.27 1022.79Z" fill="black"/>
<path d="M1477.68 947.713C1480.2 947.713 1482.24 945.636 1482.24 943.074C1482.24 940.512 1480.2 938.435 1477.68 938.435C1475.16 938.435 1473.12 940.512 1473.12 943.074C1473.12 945.636 1475.16 947.713 1477.68 947.713Z" fill="black"/>
<path d="M1477.68 1022.79C1480.2 1022.79 1482.24 1020.72 1482.24 1018.15C1482.24 1015.59 1480.2 1013.52 1477.68 1013.52C1475.16 1013.52 1473.12 1015.59 1473.12 1018.15C1473.12 1020.72 1475.16 1022.79 1477.68 1022.79Z" fill="black"/>
<path d="M1544.19 947.713C1546.71 947.713 1548.75 945.636 1548.75 943.074C1548.75 940.512 1546.71 938.435 1544.19 938.435C1541.67 938.435 1539.63 940.512 1539.63 943.074C1539.63 945.636 1541.67 947.713 1544.19 947.713Z" fill="black"/>
<path d="M1544.19 1022.79C1546.71 1022.79 1548.75 1020.72 1548.75 1018.15C1548.75 1015.59 1546.71 1013.52 1544.19 1013.52C1541.67 1013.52 1539.63 1015.59 1539.63 1018.15C1539.63 1020.72 1541.67 1022.79 1544.19 1022.79Z" fill="black"/>
<path d="M1611.6 947.713C1614.12 947.713 1616.16 945.636 1616.16 943.074C1616.16 940.512 1614.12 938.435 1611.6 938.435C1609.08 938.435 1607.04 940.512 1607.04 943.074C1607.04 945.636 1609.08 947.713 1611.6 947.713Z" fill="black"/>
<path d="M1611.6 1022.79C1614.12 1022.79 1616.16 1020.72 1616.16 1018.15C1616.16 1015.59 1614.12 1013.52 1611.6 1013.52C1609.08 1013.52 1607.04 1015.59 1607.04 1018.15C1607.04 1020.72 1609.08 1022.79 1611.6 1022.79Z" fill="black"/>
<path d="M1678.11 947.713C1680.63 947.713 1682.67 945.636 1682.67 943.074C1682.67 940.512 1680.63 938.435 1678.11 938.435C1675.59 938.435 1673.55 940.512 1673.55 943.074C1673.55 945.636 1675.59 947.713 1678.11 947.713Z" fill="black"/>
<path d="M1678.11 1022.79C1680.63 1022.79 1682.67 1020.72 1682.67 1018.15C1682.67 1015.59 1680.63 1013.52 1678.11 1013.52C1675.59 1013.52 1673.55 1015.59 1673.55 1018.15C1673.55 1020.72 1675.59 1022.79 1678.11 1022.79Z" fill="black"/>
<path d="M1745.52 947.713C1748.04 947.713 1750.08 945.636 1750.08 943.074C1750.08 940.512 1748.04 938.435 1745.52 938.435C1743 938.435 1740.96 940.512 1740.96 943.074C1740.96 945.636 1743 947.713 1745.52 947.713Z" fill="black"/>
<path d="M1745.52 1022.79C1748.04 1022.79 1750.08 1020.72 1750.08 1018.15C1750.08 1015.59 1748.04 1013.52 1745.52 1013.52C1743 1013.52 1740.96 1015.59 1740.96 1018.15C1740.96 1020.72 1743 1022.79 1745.52 1022.79Z" fill="black"/>
<path d="M1812.01 947.713C1814.53 947.713 1816.57 945.636 1816.57 943.074C1816.57 940.512 1814.53 938.435 1812.01 938.435C1809.49 938.435 1807.45 940.512 1807.45 943.074C1807.45 945.636 1809.49 947.713 1812.01 947.713Z" fill="black"/>
<path d="M1812.01 1022.79C1814.53 1022.79 1816.57 1020.72 1816.57 1018.15C1816.57 1015.59 1814.53 1013.52 1812.01 1013.52C1809.49 1013.52 1807.45 1015.59 1807.45 1018.15C1807.45 1020.72 1809.49 1022.79 1812.01 1022.79Z" fill="black"/>
</svg>
